<svg width="1440" height="978" viewBox="0 0 1440 978" fill="none" xmlns="http://www.w3.org/2000/svg">
<g opacity="0.8" filter="url(#filter0_ii_517_2840)">
<g clip-path="url(#clip0_517_2840)">
<rect x="169.63" y="129" width="178.164" height="178.164" rx="89.0822" transform="rotate(33.2282 169.63 129)" fill="#66C7C9"/>
<rect x="169.63" y="129" width="178.164" height="178.164" rx="89.0822" transform="rotate(33.2282 169.63 129)" fill="url(#paint0_radial_517_2840)"/>
<rect x="169.63" y="129" width="178.164" height="178.164" rx="89.0822" transform="rotate(33.2282 169.63 129)" fill="url(#paint1_radial_517_2840)"/>
<rect x="169.63" y="129" width="178.164" height="178.164" rx="89.0822" transform="rotate(33.2282 169.63 129)" fill="url(#paint2_radial_517_2840)" fill-opacity="0.7"/>
<g filter="url(#filter1_f_517_2840)">
<path d="M186.188 185.518C187.989 189.233 179.017 194.609 167.448 200.218C155.879 205.827 146.095 209.545 144.294 205.83C142.493 202.115 149.356 192.374 160.925 186.765C172.494 181.156 184.387 181.803 186.188 185.518Z" fill="white"/>
<path d="M183.991 186.549C183.974 186.634 183.904 186.853 183.653 187.217C183.118 187.992 182.068 188.995 180.41 190.196C177.132 192.57 172.164 195.239 166.391 198.038C160.617 200.837 155.444 203.086 151.548 204.189C149.578 204.747 148.139 204.951 147.199 204.891C146.757 204.863 146.541 204.783 146.464 204.744C146.428 204.614 146.342 204.078 146.775 202.923C147.227 201.718 148.116 200.204 149.474 198.539C152.18 195.221 156.505 191.601 161.982 188.945C167.46 186.289 172.979 185.137 177.259 185.068C179.406 185.033 181.144 185.273 182.37 185.665C183.545 186.041 183.913 186.441 183.991 186.549Z" stroke="white" stroke-width="4.846"/>
</g>
<g filter="url(#filter2_f_517_2840)">
<circle cx="137.397" cy="213.015" r="3.25911" transform="rotate(14.0178 137.397 213.015)" fill="white"/>
<circle cx="137.397" cy="213.015" r="2.423" transform="rotate(14.0178 137.397 213.015)" stroke="white" stroke-width="1.67221"/>
</g>
<g filter="url(#filter3_f_517_2840)">
<mask id="path-6-inside-1_517_2840" fill="white">
<ellipse cx="130.173" cy="224.59" rx="3.25911" ry="5.43184" transform="rotate(26.1763 130.173 224.59)"/>
</mask>
<ellipse cx="130.173" cy="224.59" rx="3.25911" ry="5.43184" transform="rotate(26.1763 130.173 224.59)" fill="white"/>
<path d="M128.749 223.89C128.408 224.584 128.025 224.914 127.917 224.983C127.872 225.012 128.011 224.908 128.345 224.855C128.711 224.797 129.294 224.811 129.914 225.116L125.639 233.814C128.574 235.257 131.452 234.238 133.176 233.125C134.994 231.95 136.464 230.165 137.447 228.166L128.749 223.89ZM129.914 225.116C130.535 225.421 130.902 225.874 131.079 226.199C131.241 226.496 131.244 226.67 131.239 226.616C131.229 226.488 131.256 225.984 131.597 225.29L122.899 221.015C121.916 223.014 121.4 225.268 121.581 227.425C121.752 229.47 122.703 232.371 125.639 233.814L129.914 225.116ZM131.597 225.29C131.938 224.597 132.32 224.267 132.428 224.197C132.473 224.168 132.334 224.272 132.001 224.325C131.634 224.383 131.052 224.37 130.431 224.065L134.707 215.367C131.771 213.924 128.893 214.943 127.17 216.056C125.352 217.23 123.881 219.016 122.899 221.015L131.597 225.29ZM130.431 224.065C129.811 223.759 129.444 223.307 129.266 222.981C129.104 222.685 129.102 222.511 129.106 222.564C129.117 222.692 129.089 223.197 128.749 223.89L137.447 228.166C138.429 226.167 138.945 223.912 138.764 221.755C138.593 219.711 137.642 216.809 134.707 215.367L130.431 224.065Z" fill="white" mask="url(#path-6-inside-1_517_2840)"/>
</g>
<g filter="url(#filter4_f_517_2840)">
<circle cx="194.392" cy="258.581" r="91.7206" transform="rotate(33.2282 194.392 258.581)" stroke="white" stroke-width="34.5277"/>
</g>
</g>
</g>
<g opacity="0.8" filter="url(#filter5_ii_517_2840)">
<g clip-path="url(#clip1_517_2840)">
<rect x="541.477" y="115" width="195.064" height="212.558" rx="97.5322" transform="rotate(33.2282 541.477 115)" fill="#66C7C9"/>
<rect x="541.477" y="115" width="195.064" height="212.558" rx="97.5322" transform="rotate(33.2282 541.477 115)" fill="url(#paint3_radial_517_2840)"/>
<rect x="541.477" y="115" width="195.064" height="212.558" rx="97.5322" transform="rotate(33.2282 541.477 115)" fill="url(#paint4_radial_517_2840)"/>
<rect x="541.477" y="115" width="195.064" height="212.558" rx="97.5322" transform="rotate(33.2282 541.477 115)" fill="url(#paint5_radial_517_2840)" fill-opacity="0.7"/>
<g filter="url(#filter6_f_517_2840)">
<path d="M557.55 180.017C559.408 184.258 549.078 190.917 535.818 197.965C522.558 205.012 511.391 209.778 509.533 205.537C507.675 201.295 515.83 189.652 529.09 182.604C542.349 175.557 555.692 175.775 557.55 180.017Z" fill="white"/>
<path d="M555.411 181.154C555.411 181.154 555.411 181.154 555.411 181.154C555.414 181.157 555.426 181.168 555.405 181.267C555.372 181.42 555.258 181.731 554.927 182.213C554.246 183.203 552.97 184.457 551.036 185.942C547.205 188.881 541.465 192.227 534.846 195.745C528.226 199.263 522.275 202.131 517.8 203.605C515.541 204.349 513.854 204.67 512.727 204.641C512.177 204.627 511.885 204.531 511.756 204.464C511.672 204.421 511.672 204.403 511.672 204.4C511.672 204.4 511.672 204.4 511.672 204.4C511.621 204.282 511.478 203.604 512.101 202.026C512.683 200.553 513.779 198.711 515.402 196.686C518.639 192.648 523.721 188.194 530.062 184.824C536.403 181.454 542.729 179.844 547.611 179.568C550.06 179.429 552.049 179.631 553.457 180.046C554.966 180.491 555.359 181.036 555.411 181.154Z" stroke="white" stroke-width="4.846"/>
</g>
<g filter="url(#filter7_f_517_2840)">
<mask id="path-12-inside-2_517_2840" fill="white">
<ellipse cx="3.60427" cy="3.85489" rx="3.60427" ry="3.85489" transform="matrix(0.976533 0.215366 -0.267168 0.96365 498.965 209.716)"/>
</mask>
<ellipse cx="3.60427" cy="3.85489" rx="3.60427" ry="3.85489" transform="matrix(0.976533 0.215366 -0.267168 0.96365 498.965 209.716)" fill="white"/>
<path d="M500.242 213.94C500.287 213.777 500.411 213.581 500.643 213.431C500.881 213.277 501.277 213.155 501.719 213.252L499.13 222.592C503.982 223.662 508.506 220.357 509.707 216.027L500.242 213.94ZM501.719 213.252C502.161 213.35 502.448 213.623 502.579 213.858C502.705 214.087 502.712 214.312 502.667 214.475L493.203 212.387C492.002 216.717 494.278 221.522 499.13 222.592L501.719 213.252ZM502.667 214.475C502.622 214.638 502.499 214.834 502.267 214.983C502.028 215.137 501.632 215.26 501.19 215.162L503.779 205.823C498.927 204.753 494.403 208.057 493.203 212.387L502.667 214.475ZM501.19 215.162C500.748 215.065 500.461 214.792 500.331 214.556C500.204 214.327 500.197 214.103 500.242 213.94L509.707 216.027C510.907 211.697 508.631 206.893 503.779 205.823L501.19 215.162Z" fill="white" mask="url(#path-12-inside-2_517_2840)"/>
</g>
<g filter="url(#filter8_f_517_2840)">
<mask id="path-14-inside-3_517_2840" fill="white">
<ellipse cx="3.57329" cy="6.47271" rx="3.57329" ry="6.47271" transform="matrix(0.9022 0.431317 -0.450123 0.892967 492.5 220.68)"/>
</mask>
<ellipse cx="3.57329" cy="6.47271" rx="3.57329" ry="6.47271" transform="matrix(0.9022 0.431317 -0.450123 0.892967 492.5 220.68)" fill="white"/>
<path d="M491.663 227.452C491.155 228.458 490.567 229.042 490.257 229.256C490.108 229.359 490.167 229.278 490.454 229.22C490.778 229.154 491.397 229.127 492.079 229.453L487.716 238.108C490.929 239.644 494.054 238.307 495.804 237.099C497.715 235.779 499.305 233.818 500.407 231.632L491.663 227.452ZM492.079 229.453C492.76 229.779 493.117 230.273 493.262 230.563C493.39 230.819 493.36 230.914 493.353 230.736C493.337 230.367 493.452 229.556 493.959 228.55L485.215 224.369C484.113 226.555 483.493 228.979 483.589 231.26C483.678 233.347 484.503 236.572 487.716 238.108L492.079 229.453ZM493.959 228.55C494.466 227.543 495.055 226.959 495.365 226.745C495.514 226.642 495.454 226.723 495.168 226.781C494.844 226.847 494.225 226.874 493.543 226.548L497.906 217.894C494.692 216.357 491.568 217.694 489.818 218.903C487.907 220.223 486.317 222.184 485.215 224.369L493.959 228.55ZM493.543 226.548C492.861 226.222 492.505 225.729 492.36 225.439C492.232 225.183 492.261 225.087 492.269 225.265C492.284 225.635 492.17 226.445 491.663 227.452L500.407 231.632C501.508 229.447 502.129 227.022 502.032 224.742C501.944 222.655 501.119 219.43 497.906 217.894L493.543 226.548Z" fill="white" mask="url(#path-14-inside-3_517_2840)"/>
</g>
<g filter="url(#filter9_f_517_2840)">
<ellipse cx="563.486" cy="264.661" rx="100.421" ry="109.427" transform="rotate(33.2282 563.486 264.661)" stroke="white" stroke-width="34.5277"/>
</g>
</g>
</g>
<g opacity="0.8" filter="url(#filter10_ii_517_2840)">
<g clip-path="url(#clip2_517_2840)">
<rect x="797.098" y="394" width="190.822" height="191.794" rx="95.411" transform="rotate(33.2282 797.098 394)" fill="#66C7C9"/>
<rect x="797.098" y="394" width="190.822" height="191.794" rx="95.411" transform="rotate(33.2282 797.098 394)" fill="url(#paint6_radial_517_2840)"/>
<rect x="797.098" y="394" width="190.822" height="191.794" rx="95.411" transform="rotate(33.2282 797.098 394)" fill="url(#paint7_radial_517_2840)"/>
<rect x="797.098" y="394" width="190.822" height="191.794" rx="95.411" transform="rotate(33.2282 797.098 394)" fill="url(#paint8_radial_517_2840)" fill-opacity="0.7"/>
<g filter="url(#filter11_f_517_2840)">
<path d="M814.718 454.708C816.641 458.696 807.003 464.497 794.579 470.555C782.155 476.613 771.651 480.634 769.728 476.645C767.805 472.656 775.192 462.169 787.616 456.111C800.039 450.053 812.795 450.719 814.718 454.708Z" fill="white"/>
<path d="M812.54 455.77C812.54 455.77 812.552 455.765 812.538 455.842C812.516 455.959 812.43 456.22 812.142 456.637C811.549 457.497 810.4 458.592 808.613 459.891C805.077 462.462 799.728 465.349 793.527 468.372C787.326 471.396 781.758 473.832 777.559 475.033C775.438 475.64 773.87 475.869 772.83 475.805C772.327 475.774 772.069 475.681 771.964 475.625C771.932 475.609 771.916 475.597 771.911 475.592C771.91 475.59 771.908 475.588 771.906 475.583C771.856 475.48 771.697 474.868 772.228 473.457C772.724 472.137 773.694 470.49 775.163 468.687C778.092 465.092 782.762 461.173 788.668 458.293C794.574 455.414 800.524 454.154 805.143 454.069C807.46 454.026 809.344 454.28 810.682 454.706C812.111 455.161 812.49 455.666 812.54 455.77Z" stroke="white" stroke-width="4.846"/>
</g>
<g filter="url(#filter12_f_517_2840)">
<mask id="path-20-inside-4_517_2840" fill="white">
<ellipse cx="3.49258" cy="3.5065" rx="3.49258" ry="3.5065" transform="matrix(0.970602 0.240689 -0.243751 0.969838 759.777 480.144)"/>
</mask>
<ellipse cx="3.49258" cy="3.5065" rx="3.49258" ry="3.5065" transform="matrix(0.970602 0.240689 -0.243751 0.969838 759.777 480.144)" fill="white"/>
<path d="M760.998 484.059C761.174 483.359 761.895 482.902 762.639 483.086L760.276 492.485C764.764 493.598 769.286 490.848 770.405 486.392L760.998 484.059ZM762.639 483.086C763.382 483.27 763.802 484.011 763.626 484.711L754.219 482.378C753.099 486.834 755.789 491.373 760.276 492.485L762.639 483.086ZM763.626 484.711C763.45 485.41 762.729 485.868 761.986 485.684L764.348 476.284C759.86 475.172 755.339 477.922 754.219 482.378L763.626 484.711ZM761.986 485.684C761.242 485.5 760.823 484.759 760.998 484.059L770.405 486.392C771.525 481.936 768.835 477.397 764.348 476.284L761.986 485.684Z" fill="white" mask="url(#path-20-inside-4_517_2840)"/>
</g>
<g filter="url(#filter13_f_517_2840)">
<mask id="path-22-inside-5_517_2840" fill="white">
<ellipse cx="3.49092" cy="5.84692" rx="3.49092" ry="5.84692" transform="matrix(0.897714 0.440579 -0.441689 0.897168 753.982 490.061)"/>
</mask>
<ellipse cx="3.49092" cy="5.84692" rx="3.49092" ry="5.84692" transform="matrix(0.897714 0.440579 -0.441689 0.897168 753.982 490.061)" fill="white"/>
<path d="M753.317 496.248C752.924 497.048 752.468 497.461 752.286 497.58C752.203 497.633 752.305 497.543 752.606 497.495C752.939 497.441 753.494 497.449 754.092 497.743L749.811 506.438C752.815 507.913 755.773 506.863 757.562 505.703C759.448 504.48 760.985 502.615 762.018 500.518L753.317 496.248ZM754.092 497.743C754.689 498.036 755.035 498.47 755.196 498.766C755.341 499.033 755.332 499.169 755.324 499.071C755.307 498.854 755.356 498.242 755.75 497.442L747.05 493.172C746.017 495.269 745.477 497.623 745.659 499.862C745.832 501.984 746.806 504.964 749.811 506.438L754.092 497.743ZM755.75 497.442C756.144 496.642 756.599 496.228 756.782 496.11C756.865 496.056 756.762 496.146 756.462 496.194C756.128 496.248 755.573 496.24 754.976 495.947L759.257 487.251C756.252 485.777 753.294 486.826 751.506 487.986C749.62 489.21 748.082 491.074 747.05 493.172L755.75 497.442ZM754.976 495.947C754.378 495.653 754.033 495.22 753.872 494.923C753.727 494.656 753.735 494.52 753.743 494.619C753.761 494.835 753.711 495.448 753.317 496.248L762.018 500.518C763.05 498.42 763.59 496.066 763.408 493.827C763.236 491.705 762.261 488.726 759.257 487.251L754.976 495.947Z" fill="white" mask="url(#path-22-inside-5_517_2840)"/>
</g>
<g filter="url(#filter14_f_517_2840)">
<ellipse cx="823.336" cy="533.219" rx="98.2368" ry="98.7369" transform="rotate(33.2282 823.336 533.219)" stroke="white" stroke-width="34.5277"/>
</g>
</g>
</g>
<g opacity="0.8" filter="url(#filter15_ii_517_2840)">
<g clip-path="url(#clip3_517_2840)">
<rect x="1342.1" width="190.822" height="191.794" rx="95.411" transform="rotate(33.2282 1342.1 0)" fill="#66C7C9"/>
<rect x="1342.1" width="190.822" height="191.794" rx="95.411" transform="rotate(33.2282 1342.1 0)" fill="url(#paint9_radial_517_2840)"/>
<rect x="1342.1" width="190.822" height="191.794" rx="95.411" transform="rotate(33.2282 1342.1 0)" fill="url(#paint10_radial_517_2840)"/>
<rect x="1342.1" width="190.822" height="191.794" rx="95.411" transform="rotate(33.2282 1342.1 0)" fill="url(#paint11_radial_517_2840)" fill-opacity="0.7"/>
<g filter="url(#filter16_f_517_2840)">
<path d="M1359.72 60.7077C1361.64 64.6963 1352 70.497 1339.58 76.5548C1327.16 82.6127 1316.65 86.6337 1314.73 82.6451C1312.81 78.6565 1320.19 68.1686 1332.62 62.1108C1345.04 56.0529 1357.8 56.719 1359.72 60.7077Z" fill="white"/>
<path d="M1357.54 61.7696C1357.54 61.7699 1357.55 61.7651 1357.54 61.8417C1357.52 61.959 1357.43 62.2202 1357.14 62.6368C1356.55 63.4966 1355.4 64.5922 1353.61 65.891C1350.08 68.462 1344.73 71.3486 1338.53 74.3722C1332.33 77.3958 1326.76 79.8323 1322.56 81.0332C1320.44 81.6399 1318.87 81.8694 1317.83 81.8054C1317.33 81.7744 1317.07 81.6805 1316.96 81.6253C1316.93 81.6086 1316.92 81.5967 1316.91 81.5921C1316.91 81.5904 1316.91 81.5875 1316.91 81.5831C1316.86 81.4797 1316.7 80.8676 1317.23 79.4572C1317.72 78.1369 1318.69 76.4905 1320.16 74.6871C1323.09 71.0919 1327.76 67.1732 1333.67 64.2934C1339.57 61.4136 1345.52 60.154 1350.14 60.0686C1352.46 60.0258 1354.34 60.2802 1355.68 60.7061C1357.11 61.161 1357.49 61.6656 1357.54 61.7696Z" stroke="white" stroke-width="4.846"/>
</g>
<g filter="url(#filter17_f_517_2840)">
<mask id="path-28-inside-6_517_2840" fill="white">
<ellipse cx="3.49258" cy="3.5065" rx="3.49258" ry="3.5065" transform="matrix(0.970602 0.240689 -0.243751 0.969838 1304.78 86.1436)"/>
</mask>
<ellipse cx="3.49258" cy="3.5065" rx="3.49258" ry="3.5065" transform="matrix(0.970602 0.240689 -0.243751 0.969838 1304.78 86.1436)" fill="white"/>
<path d="M1306 90.0592C1306.17 89.3593 1306.9 88.9015 1307.64 89.0858L1305.28 98.4855C1309.76 99.5983 1314.29 96.8481 1315.41 92.3919L1306 90.0592ZM1307.64 89.0858C1308.38 89.2701 1308.8 90.0108 1308.63 90.7107L1299.22 88.3779C1298.1 92.8341 1300.79 97.3727 1305.28 98.4855L1307.64 89.0858ZM1308.63 90.7107C1308.45 91.4105 1307.73 91.8683 1306.99 91.684L1309.35 82.2843C1304.86 81.1715 1300.34 83.9217 1299.22 88.3779L1308.63 90.7107ZM1306.99 91.684C1306.24 91.4997 1305.82 90.759 1306 90.0592L1315.41 92.3919C1316.53 87.9357 1313.84 83.3972 1309.35 82.2843L1306.99 91.684Z" fill="white" mask="url(#path-28-inside-6_517_2840)"/>
</g>
<g filter="url(#filter18_f_517_2840)">
<mask id="path-30-inside-7_517_2840" fill="white">
<ellipse cx="3.49092" cy="5.84692" rx="3.49092" ry="5.84692" transform="matrix(0.897714 0.440579 -0.441689 0.897168 1298.98 96.061)"/>
</mask>
<ellipse cx="3.49092" cy="5.84692" rx="3.49092" ry="5.84692" transform="matrix(0.897714 0.440579 -0.441689 0.897168 1298.98 96.061)" fill="white"/>
<path d="M1298.32 102.248C1297.92 103.048 1297.47 103.461 1297.29 103.58C1297.2 103.633 1297.31 103.543 1297.61 103.495C1297.94 103.441 1298.49 103.449 1299.09 103.743L1294.81 112.438C1297.82 113.913 1300.77 112.863 1302.56 111.703C1304.45 110.48 1305.99 108.615 1307.02 106.518L1298.32 102.248ZM1299.09 103.743C1299.69 104.036 1300.03 104.47 1300.2 104.766C1300.34 105.033 1300.33 105.169 1300.32 105.071C1300.31 104.854 1300.36 104.242 1300.75 103.442L1292.05 99.1717C1291.02 101.269 1290.48 103.623 1290.66 105.862C1290.83 107.984 1291.81 110.964 1294.81 112.438L1299.09 103.743ZM1300.75 103.442C1301.14 102.642 1301.6 102.228 1301.78 102.11C1301.86 102.056 1301.76 102.146 1301.46 102.194C1301.13 102.248 1300.57 102.24 1299.98 101.947L1304.26 93.2514C1301.25 91.7769 1298.29 92.8261 1296.51 93.986C1294.62 95.2095 1293.08 97.0744 1292.05 99.1717L1300.75 103.442ZM1299.98 101.947C1299.38 101.653 1299.03 101.22 1298.87 100.923C1298.73 100.656 1298.74 100.52 1298.74 100.619C1298.76 100.835 1298.71 101.448 1298.32 102.248L1307.02 106.518C1308.05 104.42 1308.59 102.066 1308.41 99.8274C1308.24 97.7051 1307.26 94.7259 1304.26 93.2514L1299.98 101.947Z" fill="white" mask="url(#path-30-inside-7_517_2840)"/>
</g>
<g filter="url(#filter19_f_517_2840)">
<ellipse cx="1368.34" cy="139.219" rx="98.2368" ry="98.7369" transform="rotate(33.2282 1368.34 139.219)" stroke="white" stroke-width="34.5277"/>
</g>
</g>
</g>
<g opacity="0.8" filter="url(#filter20_ii_517_2840)">
<g clip-path="url(#clip4_517_2840)">
<rect x="64.4766" y="666" width="195.064" height="212.558" rx="97.5322" transform="rotate(33.2282 64.4766 666)" fill="#66C7C9"/>
<rect x="64.4766" y="666" width="195.064" height="212.558" rx="97.5322" transform="rotate(33.2282 64.4766 666)" fill="url(#paint12_radial_517_2840)"/>
<rect x="64.4766" y="666" width="195.064" height="212.558" rx="97.5322" transform="rotate(33.2282 64.4766 666)" fill="url(#paint13_radial_517_2840)"/>
<rect x="64.4766" y="666" width="195.064" height="212.558" rx="97.5322" transform="rotate(33.2282 64.4766 666)" fill="url(#paint14_radial_517_2840)" fill-opacity="0.7"/>
<g filter="url(#filter21_f_517_2840)">
<path d="M80.5497 731.017C82.4077 735.258 72.0773 741.917 58.8176 748.965C45.5579 756.012 34.3902 760.778 32.5322 756.537C30.6743 752.295 38.8297 740.652 52.0893 733.604C65.349 726.557 78.6918 726.775 80.5497 731.017Z" fill="white"/>
<path d="M78.4101 732.154C78.4102 732.154 78.4103 732.154 78.4105 732.154C78.4131 732.157 78.4256 732.168 78.4042 732.267C78.371 732.42 78.2579 732.731 77.9262 733.213C77.246 734.203 75.9691 735.457 74.0353 736.942C70.2049 739.881 64.465 743.227 57.8454 746.745C51.2259 750.263 45.2744 753.131 40.7999 754.605C38.5408 755.349 36.854 755.67 35.7264 755.641C35.1764 755.627 34.8847 755.531 34.7555 755.464C34.671 755.421 34.6717 755.403 34.6718 755.4C34.6719 755.4 34.6719 755.4 34.6718 755.4C34.6202 755.282 34.4773 754.604 35.1007 753.026C35.6828 751.553 36.7781 749.711 38.4016 747.686C41.6382 743.648 46.7201 739.194 53.0615 735.824C59.4029 732.454 65.7284 730.844 70.6103 730.568C73.0592 730.429 75.0485 730.631 76.457 731.046C77.9652 731.491 78.3582 732.036 78.4101 732.154Z" stroke="white" stroke-width="4.846"/>
</g>
<g filter="url(#filter22_f_517_2840)">
<mask id="path-36-inside-8_517_2840" fill="white">
<ellipse cx="3.60427" cy="3.85489" rx="3.60427" ry="3.85489" transform="matrix(0.976533 0.215366 -0.267168 0.96365 21.9648 760.716)"/>
</mask>
<ellipse cx="3.60427" cy="3.85489" rx="3.60427" ry="3.85489" transform="matrix(0.976533 0.215366 -0.267168 0.96365 21.9648 760.716)" fill="white"/>
<path d="M23.242 764.94C23.2872 764.777 23.4107 764.581 23.6427 764.431C23.8813 764.277 24.2775 764.155 24.7194 764.252L22.13 773.592C26.9821 774.662 31.5061 771.357 32.7066 767.027L23.242 764.94ZM24.7194 764.252C25.1613 764.35 25.4479 764.623 25.5785 764.858C25.7055 765.087 25.7124 765.312 25.6672 765.475L16.2027 763.387C15.0022 767.717 17.278 772.522 22.13 773.592L24.7194 764.252ZM25.6672 765.475C25.622 765.638 25.4986 765.834 25.2666 765.983C25.0279 766.137 24.6318 766.26 24.1898 766.162L26.7792 756.823C21.9272 755.753 17.4031 759.057 16.2027 763.387L25.6672 765.475ZM24.1898 766.162C23.7479 766.065 23.4613 765.792 23.3307 765.556C23.2038 765.327 23.1968 765.103 23.242 764.94L32.7066 767.027C33.9071 762.697 31.6313 757.893 26.7792 756.823L24.1898 766.162Z" fill="white" mask="url(#path-36-inside-8_517_2840)"/>
</g>
<g filter="url(#filter23_f_517_2840)">
<mask id="path-38-inside-9_517_2840" fill="white">
<ellipse cx="3.57329" cy="6.47271" rx="3.57329" ry="6.47271" transform="matrix(0.9022 0.431317 -0.450123 0.892967 15.501 771.68)"/>
</mask>
<ellipse cx="3.57329" cy="6.47271" rx="3.57329" ry="6.47271" transform="matrix(0.9022 0.431317 -0.450123 0.892967 15.501 771.68)" fill="white"/>
<path d="M14.663 778.452C14.1557 779.458 13.5673 780.042 13.2574 780.256C13.1084 780.359 13.168 780.278 13.4541 780.22C13.7783 780.154 14.3971 780.127 15.0791 780.453L10.7165 789.108C13.9296 790.644 17.0544 789.307 18.804 788.099C20.7154 786.779 22.3055 784.818 23.4072 782.632L14.663 778.452ZM15.0791 780.453C15.761 780.779 16.1175 781.273 16.2624 781.563C16.3903 781.819 16.3608 781.914 16.3533 781.736C16.3376 781.367 16.4521 780.556 16.9595 779.55L8.2154 775.369C7.11371 777.555 6.49313 779.979 6.58977 782.26C6.67824 784.347 7.50332 787.572 10.7165 789.108L15.0791 780.453ZM16.9595 779.55C17.4669 778.543 18.0553 777.959 18.3652 777.745C18.5142 777.642 18.4546 777.723 18.1685 777.781C17.8443 777.847 17.2254 777.874 16.5435 777.548L20.9061 768.894C17.6929 767.357 14.5682 768.694 12.8185 769.903C10.9071 771.223 9.3171 773.184 8.2154 775.369L16.9595 779.55ZM16.5435 777.548C15.8616 777.222 15.5051 776.729 15.3602 776.439C15.2323 776.183 15.2617 776.087 15.2693 776.265C15.2849 776.635 15.1704 777.445 14.663 778.452L23.4072 782.632C24.5089 780.447 25.1294 778.022 25.0328 775.742C24.9443 773.655 24.1193 770.43 20.9061 768.894L16.5435 777.548Z" fill="white" mask="url(#path-38-inside-9_517_2840)"/>
</g>
<g filter="url(#filter24_f_517_2840)">
<ellipse cx="86.4857" cy="815.661" rx="100.421" ry="109.427" transform="rotate(33.2282 86.4857 815.661)" stroke="white" stroke-width="34.5277"/>
</g>
</g>
</g>
<g opacity="0.8" filter="url(#filter25_ii_517_2840)">
<g clip-path="url(#clip5_517_2840)">
<rect x="1327.48" y="693" width="195.064" height="212.558" rx="97.5322" transform="rotate(33.2282 1327.48 693)" fill="#66C7C9"/>
<rect x="1327.48" y="693" width="195.064" height="212.558" rx="97.5322" transform="rotate(33.2282 1327.48 693)" fill="url(#paint15_radial_517_2840)"/>
<rect x="1327.48" y="693" width="195.064" height="212.558" rx="97.5322" transform="rotate(33.2282 1327.48 693)" fill="url(#paint16_radial_517_2840)"/>
<rect x="1327.48" y="693" width="195.064" height="212.558" rx="97.5322" transform="rotate(33.2282 1327.48 693)" fill="url(#paint17_radial_517_2840)" fill-opacity="0.7"/>
<g filter="url(#filter26_f_517_2840)">
<path d="M1343.55 758.017C1345.41 762.258 1335.08 768.917 1321.82 775.965C1308.56 783.012 1297.39 787.778 1295.53 783.537C1293.67 779.295 1301.83 767.652 1315.09 760.604C1328.35 753.557 1341.69 753.775 1343.55 758.017Z" fill="white"/>
<path d="M1341.41 759.154C1341.41 759.154 1341.41 759.154 1341.41 759.154C1341.41 759.157 1341.43 759.168 1341.4 759.267C1341.37 759.42 1341.26 759.731 1340.93 760.213C1340.25 761.203 1338.97 762.457 1337.04 763.942C1333.21 766.881 1327.47 770.227 1320.85 773.745C1314.23 777.263 1308.27 780.131 1303.8 781.605C1301.54 782.349 1299.85 782.67 1298.73 782.641C1298.18 782.627 1297.89 782.531 1297.76 782.464C1297.67 782.421 1297.67 782.403 1297.67 782.4C1297.67 782.4 1297.67 782.4 1297.67 782.4C1297.62 782.282 1297.48 781.604 1298.1 780.026C1298.68 778.553 1299.78 776.711 1301.4 774.686C1304.64 770.648 1309.72 766.194 1316.06 762.824C1322.4 759.454 1328.73 757.844 1333.61 757.568C1336.06 757.429 1338.05 757.631 1339.46 758.046C1340.97 758.491 1341.36 759.036 1341.41 759.154Z" stroke="white" stroke-width="4.846"/>
</g>
<g filter="url(#filter27_f_517_2840)">
<mask id="path-44-inside-10_517_2840" fill="white">
<ellipse cx="3.60427" cy="3.85489" rx="3.60427" ry="3.85489" transform="matrix(0.976533 0.215366 -0.267168 0.96365 1284.96 787.716)"/>
</mask>
<ellipse cx="3.60427" cy="3.85489" rx="3.60427" ry="3.85489" transform="matrix(0.976533 0.215366 -0.267168 0.96365 1284.96 787.716)" fill="white"/>
<path d="M1286.24 791.94C1286.29 791.777 1286.41 791.581 1286.64 791.431C1286.88 791.277 1287.28 791.155 1287.72 791.252L1285.13 800.592C1289.98 801.662 1294.51 798.357 1295.71 794.027L1286.24 791.94ZM1287.72 791.252C1288.16 791.35 1288.45 791.623 1288.58 791.858C1288.71 792.087 1288.71 792.312 1288.67 792.475L1279.2 790.387C1278 794.717 1280.28 799.522 1285.13 800.592L1287.72 791.252ZM1288.67 792.475C1288.62 792.638 1288.5 792.834 1288.27 792.983C1288.03 793.137 1287.63 793.26 1287.19 793.162L1289.78 783.823C1284.93 782.753 1280.4 786.057 1279.2 790.387L1288.67 792.475ZM1287.19 793.162C1286.75 793.065 1286.46 792.792 1286.33 792.556C1286.2 792.327 1286.2 792.103 1286.24 791.94L1295.71 794.027C1296.91 789.697 1294.63 784.893 1289.78 783.823L1287.19 793.162Z" fill="white" mask="url(#path-44-inside-10_517_2840)"/>
</g>
<g filter="url(#filter28_f_517_2840)">
<mask id="path-46-inside-11_517_2840" fill="white">
<ellipse cx="3.57329" cy="6.47271" rx="3.57329" ry="6.47271" transform="matrix(0.9022 0.431317 -0.450123 0.892967 1278.5 798.68)"/>
</mask>
<ellipse cx="3.57329" cy="6.47271" rx="3.57329" ry="6.47271" transform="matrix(0.9022 0.431317 -0.450123 0.892967 1278.5 798.68)" fill="white"/>
<path d="M1277.66 805.452C1277.16 806.458 1276.57 807.042 1276.26 807.256C1276.11 807.359 1276.17 807.278 1276.45 807.22C1276.78 807.154 1277.4 807.127 1278.08 807.453L1273.72 816.108C1276.93 817.644 1280.05 816.307 1281.8 815.099C1283.71 813.779 1285.3 811.818 1286.41 809.632L1277.66 805.452ZM1278.08 807.453C1278.76 807.779 1279.12 808.273 1279.26 808.563C1279.39 808.819 1279.36 808.914 1279.35 808.736C1279.34 808.367 1279.45 807.556 1279.96 806.55L1271.21 802.369C1270.11 804.555 1269.49 806.979 1269.59 809.26C1269.68 811.347 1270.5 814.572 1273.72 816.108L1278.08 807.453ZM1279.96 806.55C1280.47 805.543 1281.05 804.959 1281.36 804.745C1281.51 804.642 1281.45 804.723 1281.17 804.781C1280.84 804.847 1280.22 804.874 1279.54 804.548L1283.91 795.894C1280.69 794.357 1277.57 795.694 1275.82 796.903C1273.91 798.223 1272.32 800.184 1271.21 802.369L1279.96 806.55ZM1279.54 804.548C1278.86 804.222 1278.5 803.729 1278.36 803.439C1278.23 803.183 1278.26 803.087 1278.27 803.265C1278.28 803.635 1278.17 804.445 1277.66 805.452L1286.41 809.632C1287.51 807.447 1288.13 805.022 1288.03 802.742C1287.94 800.655 1287.12 797.43 1283.91 795.894L1279.54 804.548Z" fill="white" mask="url(#path-46-inside-11_517_2840)"/>
</g>
<g filter="url(#filter29_f_517_2840)">
<ellipse cx="1349.49" cy="842.661" rx="100.421" ry="109.427" transform="rotate(33.2282 1349.49 842.661)" stroke="white" stroke-width="34.5277"/>
</g>
</g>
</g>
<defs>
<filter id="filter0_ii_517_2840" x="69.577" y="126.577" width="258.779" height="258.779" filterUnits="userSpaceOnUse" color-interpolation-filters="sRGB">
<feFlood flood-opacity="0" result="BackgroundImageFix"/>
<feBlend mode="normal" in="SourceGraphic" in2="BackgroundImageFix" result="shape"/>
<feColorMatrix in="SourceAlpha" type="matrix" values="0 0 0 0 0 0 0 0 0 0 0 0 0 0 0 0 0 0 127 0" result="hardAlpha"/>
<feOffset dx="-2.423" dy="-2.423"/>
<feGaussianBlur stdDeviation="23.3214"/>
<feComposite in2="hardAlpha" operator="arithmetic" k2="-1" k3="1"/>
<feColorMatrix type="matrix" values="0 0 0 0 1 0 0 0 0 1 0 0 0 0 1 0 0 0 0.22 0"/>
<feBlend mode="normal" in2="shape" result="effect1_innerShadow_517_2840"/>
<feColorMatrix in="SourceAlpha" type="matrix" values="0 0 0 0 0 0 0 0 0 0 0 0 0 0 0 0 0 0 127 0" result="hardAlpha"/>
<feOffset dx="9.69199" dy="9.69199"/>
<feGaussianBlur stdDeviation="49.6715"/>
<feComposite in2="hardAlpha" operator="arithmetic" k2="-1" k3="1"/>
<feColorMatrix type="matrix" values="0 0 0 0 1 0 0 0 0 1 0 0 0 0 1 0 0 0 0.25 0"/>
<feBlend mode="normal" in2="effect1_innerShadow_517_2840" result="effect2_innerShadow_517_2840"/>
</filter>
<filter id="filter1_f_517_2840" x="127.048" y="165.681" width="76.3321" height="58.6046" filterUnits="userSpaceOnUse" color-interpolation-filters="sRGB">
<feFlood flood-opacity="0" result="BackgroundImageFix"/>
<feBlend mode="normal" in="SourceGraphic" in2="BackgroundImageFix" result="shape"/>
<feGaussianBlur stdDeviation="8.48049" result="effect1_foregroundBlur_517_2840"/>
</filter>
<filter id="filter2_f_517_2840" x="125.051" y="200.669" width="24.692" height="24.6925" filterUnits="userSpaceOnUse" color-interpolation-filters="sRGB">
<feFlood flood-opacity="0" result="BackgroundImageFix"/>
<feBlend mode="normal" in="SourceGraphic" in2="BackgroundImageFix" result="shape"/>
<feGaussianBlur stdDeviation="4.54312" result="effect1_foregroundBlur_517_2840"/>
</filter>
<filter id="filter3_f_517_2840" x="116.094" y="209.209" width="28.158" height="30.7625" filterUnits="userSpaceOnUse" color-interpolation-filters="sRGB">
<feFlood flood-opacity="0" result="BackgroundImageFix"/>
<feBlend mode="normal" in="SourceGraphic" in2="BackgroundImageFix" result="shape"/>
<feGaussianBlur stdDeviation="5.14887" result="effect1_foregroundBlur_517_2840"/>
</filter>
<filter id="filter4_f_517_2840" x="39.3585" y="103.547" width="310.068" height="310.068" filterUnits="userSpaceOnUse" color-interpolation-filters="sRGB">
<feFlood flood-opacity="0" result="BackgroundImageFix"/>
<feBlend mode="normal" in="SourceGraphic" in2="BackgroundImageFix" result="shape"/>
<feGaussianBlur stdDeviation="23.0185" result="effect1_foregroundBlur_517_2840"/>
</filter>
<filter id="filter5_ii_517_2840" x="422.577" y="112.577" width="291.762" height="296.809" filterUnits="userSpaceOnUse" color-interpolation-filters="sRGB">
<feFlood flood-opacity="0" result="BackgroundImageFix"/>
<feBlend mode="normal" in="SourceGraphic" in2="BackgroundImageFix" result="shape"/>
<feColorMatrix in="SourceAlpha" type="matrix" values="0 0 0 0 0 0 0 0 0 0 0 0 0 0 0 0 0 0 127 0" result="hardAlpha"/>
<feOffset dx="-2.423" dy="-2.423"/>
<feGaussianBlur stdDeviation="23.3214"/>
<feComposite in2="hardAlpha" operator="arithmetic" k2="-1" k3="1"/>
<feColorMatrix type="matrix" values="0 0 0 0 1 0 0 0 0 1 0 0 0 0 1 0 0 0 0.22 0"/>
<feBlend mode="normal" in2="shape" result="effect1_innerShadow_517_2840"/>
<feColorMatrix in="SourceAlpha" type="matrix" values="0 0 0 0 0 0 0 0 0 0 0 0 0 0 0 0 0 0 127 0" result="hardAlpha"/>
<feOffset dx="9.69199" dy="9.69199"/>
<feGaussianBlur stdDeviation="49.6715"/>
<feComposite in2="hardAlpha" operator="arithmetic" k2="-1" k3="1"/>
<feColorMatrix type="matrix" values="0 0 0 0 1 0 0 0 0 1 0 0 0 0 1 0 0 0 0.25 0"/>
<feBlend mode="normal" in2="effect1_innerShadow_517_2840" result="effect2_innerShadow_517_2840"/>
</filter>
<filter id="filter6_f_517_2840" x="492.309" y="160.069" width="82.419" height="64.0284" filterUnits="userSpaceOnUse" color-interpolation-filters="sRGB">
<feFlood flood-opacity="0" result="BackgroundImageFix"/>
<feBlend mode="normal" in="SourceGraphic" in2="BackgroundImageFix" result="shape"/>
<feGaussianBlur stdDeviation="8.48049" result="effect1_foregroundBlur_517_2840"/>
</filter>
<filter id="filter7_f_517_2840" x="488.7" y="201.325" width="25.5089" height="25.7638" filterUnits="userSpaceOnUse" color-interpolation-filters="sRGB">
<feFlood flood-opacity="0" result="BackgroundImageFix"/>
<feBlend mode="normal" in="SourceGraphic" in2="BackgroundImageFix" result="shape"/>
<feGaussianBlur stdDeviation="4.54312" result="effect1_foregroundBlur_517_2840"/>
</filter>
<filter id="filter8_f_517_2840" x="478.168" y="211.72" width="29.2864" height="32.5623" filterUnits="userSpaceOnUse" color-interpolation-filters="sRGB">
<feFlood flood-opacity="0" result="BackgroundImageFix"/>
<feBlend mode="normal" in="SourceGraphic" in2="BackgroundImageFix" result="shape"/>
<feGaussianBlur stdDeviation="5.14887" result="effect1_foregroundBlur_517_2840"/>
</filter>
<filter id="filter9_f_517_2840" x="397.001" y="94.4938" width="332.97" height="340.334" filterUnits="userSpaceOnUse" color-interpolation-filters="sRGB">
<feFlood flood-opacity="0" result="BackgroundImageFix"/>
<feBlend mode="normal" in="SourceGraphic" in2="BackgroundImageFix" result="shape"/>
<feGaussianBlur stdDeviation="23.0185" result="effect1_foregroundBlur_517_2840"/>
</filter>
<filter id="filter10_ii_517_2840" x="689.577" y="391.577" width="276.835" height="277.115" filterUnits="userSpaceOnUse" color-interpolation-filters="sRGB">
<feFlood flood-opacity="0" result="BackgroundImageFix"/>
<feBlend mode="normal" in="SourceGraphic" in2="BackgroundImageFix" result="shape"/>
<feColorMatrix in="SourceAlpha" type="matrix" values="0 0 0 0 0 0 0 0 0 0 0 0 0 0 0 0 0 0 127 0" result="hardAlpha"/>
<feOffset dx="-2.423" dy="-2.423"/>
<feGaussianBlur stdDeviation="23.3214"/>
<feComposite in2="hardAlpha" operator="arithmetic" k2="-1" k3="1"/>
<feColorMatrix type="matrix" values="0 0 0 0 1 0 0 0 0 1 0 0 0 0 1 0 0 0 0.22 0"/>
<feBlend mode="normal" in2="shape" result="effect1_innerShadow_517_2840"/>
<feColorMatrix in="SourceAlpha" type="matrix" values="0 0 0 0 0 0 0 0 0 0 0 0 0 0 0 0 0 0 127 0" result="hardAlpha"/>
<feOffset dx="9.69199" dy="9.69199"/>
<feGaussianBlur stdDeviation="49.6715"/>
<feComposite in2="hardAlpha" operator="arithmetic" k2="-1" k3="1"/>
<feColorMatrix type="matrix" values="0 0 0 0 1 0 0 0 0 1 0 0 0 0 1 0 0 0 0.25 0"/>
<feBlend mode="normal" in2="effect1_innerShadow_517_2840" result="effect2_innerShadow_517_2840"/>
</filter>
<filter id="filter11_f_517_2840" x="752.465" y="434.676" width="79.4596" height="60.5279" filterUnits="userSpaceOnUse" color-interpolation-filters="sRGB">
<feFlood flood-opacity="0" result="BackgroundImageFix"/>
<feBlend mode="normal" in="SourceGraphic" in2="BackgroundImageFix" result="shape"/>
<feGaussianBlur stdDeviation="8.48049" result="effect1_foregroundBlur_517_2840"/>
</filter>
<filter id="filter12_f_517_2840" x="749.729" y="471.795" width="25.1661" height="25.1803" filterUnits="userSpaceOnUse" color-interpolation-filters="sRGB">
<feFlood flood-opacity="0" result="BackgroundImageFix"/>
<feBlend mode="normal" in="SourceGraphic" in2="BackgroundImageFix" result="shape"/>
<feGaussianBlur stdDeviation="4.54312" result="effect1_foregroundBlur_517_2840"/>
</filter>
<filter id="filter13_f_517_2840" x="740.175" y="481.079" width="28.7176" height="31.531" filterUnits="userSpaceOnUse" color-interpolation-filters="sRGB">
<feFlood flood-opacity="0" result="BackgroundImageFix"/>
<feBlend mode="normal" in="SourceGraphic" in2="BackgroundImageFix" result="shape"/>
<feGaussianBlur stdDeviation="5.14887" result="effect1_foregroundBlur_517_2840"/>
</filter>
<filter id="filter14_f_517_2840" x="661.637" y="371.316" width="323.398" height="323.807" filterUnits="userSpaceOnUse" color-interpolation-filters="sRGB">
<feFlood flood-opacity="0" result="BackgroundImageFix"/>
<feBlend mode="normal" in="SourceGraphic" in2="BackgroundImageFix" result="shape"/>
<feGaussianBlur stdDeviation="23.0185" result="effect1_foregroundBlur_517_2840"/>
</filter>
<filter id="filter15_ii_517_2840" x="1234.58" y="-2.423" width="276.835" height="277.115" filterUnits="userSpaceOnUse" color-interpolation-filters="sRGB">
<feFlood flood-opacity="0" result="BackgroundImageFix"/>
<feBlend mode="normal" in="SourceGraphic" in2="BackgroundImageFix" result="shape"/>
<feColorMatrix in="SourceAlpha" type="matrix" values="0 0 0 0 0 0 0 0 0 0 0 0 0 0 0 0 0 0 127 0" result="hardAlpha"/>
<feOffset dx="-2.423" dy="-2.423"/>
<feGaussianBlur stdDeviation="23.3214"/>
<feComposite in2="hardAlpha" operator="arithmetic" k2="-1" k3="1"/>
<feColorMatrix type="matrix" values="0 0 0 0 1 0 0 0 0 1 0 0 0 0 1 0 0 0 0.22 0"/>
<feBlend mode="normal" in2="shape" result="effect1_innerShadow_517_2840"/>
<feColorMatrix in="SourceAlpha" type="matrix" values="0 0 0 0 0 0 0 0 0 0 0 0 0 0 0 0 0 0 127 0" result="hardAlpha"/>
<feOffset dx="9.69199" dy="9.69199"/>
<feGaussianBlur stdDeviation="49.6715"/>
<feComposite in2="hardAlpha" operator="arithmetic" k2="-1" k3="1"/>
<feColorMatrix type="matrix" values="0 0 0 0 1 0 0 0 0 1 0 0 0 0 1 0 0 0 0.25 0"/>
<feBlend mode="normal" in2="effect1_innerShadow_517_2840" result="effect2_innerShadow_517_2840"/>
</filter>
<filter id="filter16_f_517_2840" x="1297.46" y="40.6757" width="79.4596" height="60.5279" filterUnits="userSpaceOnUse" color-interpolation-filters="sRGB">
<feFlood flood-opacity="0" result="BackgroundImageFix"/>
<feBlend mode="normal" in="SourceGraphic" in2="BackgroundImageFix" result="shape"/>
<feGaussianBlur stdDeviation="8.48049" result="effect1_foregroundBlur_517_2840"/>
</filter>
<filter id="filter17_f_517_2840" x="1294.73" y="77.7946" width="25.1661" height="25.1803" filterUnits="userSpaceOnUse" color-interpolation-filters="sRGB">
<feFlood flood-opacity="0" result="BackgroundImageFix"/>
<feBlend mode="normal" in="SourceGraphic" in2="BackgroundImageFix" result="shape"/>
<feGaussianBlur stdDeviation="4.54312" result="effect1_foregroundBlur_517_2840"/>
</filter>
<filter id="filter18_f_517_2840" x="1285.17" y="87.0792" width="28.7176" height="31.531" filterUnits="userSpaceOnUse" color-interpolation-filters="sRGB">
<feFlood flood-opacity="0" result="BackgroundImageFix"/>
<feBlend mode="normal" in="SourceGraphic" in2="BackgroundImageFix" result="shape"/>
<feGaussianBlur stdDeviation="5.14887" result="effect1_foregroundBlur_517_2840"/>
</filter>
<filter id="filter19_f_517_2840" x="1206.64" y="-22.6844" width="323.398" height="323.807" filterUnits="userSpaceOnUse" color-interpolation-filters="sRGB">
<feFlood flood-opacity="0" result="BackgroundImageFix"/>
<feBlend mode="normal" in="SourceGraphic" in2="BackgroundImageFix" result="shape"/>
<feGaussianBlur stdDeviation="23.0185" result="effect1_foregroundBlur_517_2840"/>
</filter>
<filter id="filter20_ii_517_2840" x="-54.423" y="663.577" width="291.762" height="296.809" filterUnits="userSpaceOnUse" color-interpolation-filters="sRGB">
<feFlood flood-opacity="0" result="BackgroundImageFix"/>
<feBlend mode="normal" in="SourceGraphic" in2="BackgroundImageFix" result="shape"/>
<feColorMatrix in="SourceAlpha" type="matrix" values="0 0 0 0 0 0 0 0 0 0 0 0 0 0 0 0 0 0 127 0" result="hardAlpha"/>
<feOffset dx="-2.423" dy="-2.423"/>
<feGaussianBlur stdDeviation="23.3214"/>
<feComposite in2="hardAlpha" operator="arithmetic" k2="-1" k3="1"/>
<feColorMatrix type="matrix" values="0 0 0 0 1 0 0 0 0 1 0 0 0 0 1 0 0 0 0.22 0"/>
<feBlend mode="normal" in2="shape" result="effect1_innerShadow_517_2840"/>
<feColorMatrix in="SourceAlpha" type="matrix" values="0 0 0 0 0 0 0 0 0 0 0 0 0 0 0 0 0 0 127 0" result="hardAlpha"/>
<feOffset dx="9.69199" dy="9.69199"/>
<feGaussianBlur stdDeviation="49.6715"/>
<feComposite in2="hardAlpha" operator="arithmetic" k2="-1" k3="1"/>
<feColorMatrix type="matrix" values="0 0 0 0 1 0 0 0 0 1 0 0 0 0 1 0 0 0 0.25 0"/>
<feBlend mode="normal" in2="effect1_innerShadow_517_2840" result="effect2_innerShadow_517_2840"/>
</filter>
<filter id="filter21_f_517_2840" x="15.3085" y="711.069" width="82.419" height="64.0284" filterUnits="userSpaceOnUse" color-interpolation-filters="sRGB">
<feFlood flood-opacity="0" result="BackgroundImageFix"/>
<feBlend mode="normal" in="SourceGraphic" in2="BackgroundImageFix" result="shape"/>
<feGaussianBlur stdDeviation="8.48049" result="effect1_foregroundBlur_517_2840"/>
</filter>
<filter id="filter22_f_517_2840" x="11.6999" y="752.325" width="25.5094" height="25.7638" filterUnits="userSpaceOnUse" color-interpolation-filters="sRGB">
<feFlood flood-opacity="0" result="BackgroundImageFix"/>
<feBlend mode="normal" in="SourceGraphic" in2="BackgroundImageFix" result="shape"/>
<feGaussianBlur stdDeviation="4.54312" result="effect1_foregroundBlur_517_2840"/>
</filter>
<filter id="filter23_f_517_2840" x="1.16808" y="762.72" width="29.2859" height="32.5623" filterUnits="userSpaceOnUse" color-interpolation-filters="sRGB">
<feFlood flood-opacity="0" result="BackgroundImageFix"/>
<feBlend mode="normal" in="SourceGraphic" in2="BackgroundImageFix" result="shape"/>
<feGaussianBlur stdDeviation="5.14887" result="effect1_foregroundBlur_517_2840"/>
</filter>
<filter id="filter24_f_517_2840" x="-79.9999" y="645.494" width="332.97" height="340.334" filterUnits="userSpaceOnUse" color-interpolation-filters="sRGB">
<feFlood flood-opacity="0" result="BackgroundImageFix"/>
<feBlend mode="normal" in="SourceGraphic" in2="BackgroundImageFix" result="shape"/>
<feGaussianBlur stdDeviation="23.0185" result="effect1_foregroundBlur_517_2840"/>
</filter>
<filter id="filter25_ii_517_2840" x="1208.58" y="690.577" width="291.762" height="296.809" filterUnits="userSpaceOnUse" color-interpolation-filters="sRGB">
<feFlood flood-opacity="0" result="BackgroundImageFix"/>
<feBlend mode="normal" in="SourceGraphic" in2="BackgroundImageFix" result="shape"/>
<feColorMatrix in="SourceAlpha" type="matrix" values="0 0 0 0 0 0 0 0 0 0 0 0 0 0 0 0 0 0 127 0" result="hardAlpha"/>
<feOffset dx="-2.423" dy="-2.423"/>
<feGaussianBlur stdDeviation="23.3214"/>
<feComposite in2="hardAlpha" operator="arithmetic" k2="-1" k3="1"/>
<feColorMatrix type="matrix" values="0 0 0 0 1 0 0 0 0 1 0 0 0 0 1 0 0 0 0.22 0"/>
<feBlend mode="normal" in2="shape" result="effect1_innerShadow_517_2840"/>
<feColorMatrix in="SourceAlpha" type="matrix" values="0 0 0 0 0 0 0 0 0 0 0 0 0 0 0 0 0 0 127 0" result="hardAlpha"/>
<feOffset dx="9.69199" dy="9.69199"/>
<feGaussianBlur stdDeviation="49.6715"/>
<feComposite in2="hardAlpha" operator="arithmetic" k2="-1" k3="1"/>
<feColorMatrix type="matrix" values="0 0 0 0 1 0 0 0 0 1 0 0 0 0 1 0 0 0 0.25 0"/>
<feBlend mode="normal" in2="effect1_innerShadow_517_2840" result="effect2_innerShadow_517_2840"/>
</filter>
<filter id="filter26_f_517_2840" x="1278.31" y="738.069" width="82.419" height="64.0284" filterUnits="userSpaceOnUse" color-interpolation-filters="sRGB">
<feFlood flood-opacity="0" result="BackgroundImageFix"/>
<feBlend mode="normal" in="SourceGraphic" in2="BackgroundImageFix" result="shape"/>
<feGaussianBlur stdDeviation="8.48049" result="effect1_foregroundBlur_517_2840"/>
</filter>
<filter id="filter27_f_517_2840" x="1274.7" y="779.325" width="25.5089" height="25.7638" filterUnits="userSpaceOnUse" color-interpolation-filters="sRGB">
<feFlood flood-opacity="0" result="BackgroundImageFix"/>
<feBlend mode="normal" in="SourceGraphic" in2="BackgroundImageFix" result="shape"/>
<feGaussianBlur stdDeviation="4.54312" result="effect1_foregroundBlur_517_2840"/>
</filter>
<filter id="filter28_f_517_2840" x="1264.17" y="789.72" width="29.2864" height="32.5623" filterUnits="userSpaceOnUse" color-interpolation-filters="sRGB">
<feFlood flood-opacity="0" result="BackgroundImageFix"/>
<feBlend mode="normal" in="SourceGraphic" in2="BackgroundImageFix" result="shape"/>
<feGaussianBlur stdDeviation="5.14887" result="effect1_foregroundBlur_517_2840"/>
</filter>
<filter id="filter29_f_517_2840" x="1183" y="672.494" width="332.97" height="340.334" filterUnits="userSpaceOnUse" color-interpolation-filters="sRGB">
<feFlood flood-opacity="0" result="BackgroundImageFix"/>
<feBlend mode="normal" in="SourceGraphic" in2="BackgroundImageFix" result="shape"/>
<feGaussianBlur stdDeviation="23.0185" result="effect1_foregroundBlur_517_2840"/>
</filter>
<radialGradient id="paint0_radial_517_2840" cx="0" cy="0" r="1" gradientUnits="userSpaceOnUse" gradientTransform="translate(295.183 218.082) rotate(125.175) scale(99.6792)">
<stop stop-color="#83D5D6"/>
<stop offset="1" stop-color="#C2EFF0"/>
</radialGradient>
<radialGradient id="paint1_radial_517_2840" cx="0" cy="0" r="1" gradientUnits="userSpaceOnUse" gradientTransform="translate(193.53 241.362) rotate(15.3564) scale(107.831)">
<stop stop-color="#66C7C9"/>
<stop offset="1" stop-color="#66C7C9"/>
</radialGradient>
<radialGradient id="paint2_radial_517_2840" cx="0" cy="0" r="1" gradientUnits="userSpaceOnUse" gradientTransform="translate(205.325 161.436) rotate(49.1576) scale(168.015)">
<stop stop-color="white"/>
<stop offset="0.97449" stop-color="white" stop-opacity="0"/>
</radialGradient>
<radialGradient id="paint3_radial_517_2840" cx="0" cy="0" r="1" gradientUnits="userSpaceOnUse" gradientTransform="translate(678.939 221.279) rotate(122.893) scale(115.765 112.11)">
<stop stop-color="#83D5D6"/>
<stop offset="1" stop-color="#C2EFF0"/>
</radialGradient>
<radialGradient id="paint4_radial_517_2840" cx="0" cy="0" r="1" gradientUnits="userSpaceOnUse" gradientTransform="translate(567.644 249.052) rotate(16.6601) scale(118.833 127.81)">
<stop stop-color="#66C7C9"/>
<stop offset="1" stop-color="#66C7C9"/>
</radialGradient>
<radialGradient id="paint5_radial_517_2840" cx="0" cy="0" r="1" gradientUnits="userSpaceOnUse" gradientTransform="translate(580.557 153.697) rotate(51.5742) scale(193.566 190.494)">
<stop stop-color="white"/>
<stop offset="0.97449" stop-color="white" stop-opacity="0"/>
</radialGradient>
<radialGradient id="paint6_radial_517_2840" cx="0" cy="0" r="1" gradientUnits="userSpaceOnUse" gradientTransform="translate(931.571 489.897) rotate(125.038) scale(107.124 106.94)">
<stop stop-color="#83D5D6"/>
<stop offset="1" stop-color="#C2EFF0"/>
</radialGradient>
<radialGradient id="paint7_radial_517_2840" cx="0" cy="0" r="1" gradientUnits="userSpaceOnUse" gradientTransform="translate(822.696 514.957) rotate(15.4308) scale(115.533 116.038)">
<stop stop-color="#66C7C9"/>
<stop offset="1" stop-color="#66C7C9"/>
</radialGradient>
<radialGradient id="paint8_radial_517_2840" cx="0" cy="0" r="1" gradientUnits="userSpaceOnUse" gradientTransform="translate(835.329 428.917) rotate(49.3015) scale(180.476 180.341)">
<stop stop-color="white"/>
<stop offset="0.97449" stop-color="white" stop-opacity="0"/>
</radialGradient>
<radialGradient id="paint9_radial_517_2840" cx="0" cy="0" r="1" gradientUnits="userSpaceOnUse" gradientTransform="translate(1476.57 95.8968) rotate(125.038) scale(107.124 106.94)">
<stop stop-color="#83D5D6"/>
<stop offset="1" stop-color="#C2EFF0"/>
</radialGradient>
<radialGradient id="paint10_radial_517_2840" cx="0" cy="0" r="1" gradientUnits="userSpaceOnUse" gradientTransform="translate(1367.7 120.957) rotate(15.4308) scale(115.533 116.038)">
<stop stop-color="#66C7C9"/>
<stop offset="1" stop-color="#66C7C9"/>
</radialGradient>
<radialGradient id="paint11_radial_517_2840" cx="0" cy="0" r="1" gradientUnits="userSpaceOnUse" gradientTransform="translate(1380.33 34.9171) rotate(49.3015) scale(180.476 180.341)">
<stop stop-color="white"/>
<stop offset="0.97449" stop-color="white" stop-opacity="0"/>
</radialGradient>
<radialGradient id="paint12_radial_517_2840" cx="0" cy="0" r="1" gradientUnits="userSpaceOnUse" gradientTransform="translate(201.939 772.279) rotate(122.893) scale(115.765 112.11)">
<stop stop-color="#83D5D6"/>
<stop offset="1" stop-color="#C2EFF0"/>
</radialGradient>
<radialGradient id="paint13_radial_517_2840" cx="0" cy="0" r="1" gradientUnits="userSpaceOnUse" gradientTransform="translate(90.6437 800.052) rotate(16.6601) scale(118.833 127.81)">
<stop stop-color="#66C7C9"/>
<stop offset="1" stop-color="#66C7C9"/>
</radialGradient>
<radialGradient id="paint14_radial_517_2840" cx="0" cy="0" r="1" gradientUnits="userSpaceOnUse" gradientTransform="translate(103.557 704.697) rotate(51.5742) scale(193.566 190.494)">
<stop stop-color="white"/>
<stop offset="0.97449" stop-color="white" stop-opacity="0"/>
</radialGradient>
<radialGradient id="paint15_radial_517_2840" cx="0" cy="0" r="1" gradientUnits="userSpaceOnUse" gradientTransform="translate(1464.94 799.279) rotate(122.893) scale(115.765 112.11)">
<stop stop-color="#83D5D6"/>
<stop offset="1" stop-color="#C2EFF0"/>
</radialGradient>
<radialGradient id="paint16_radial_517_2840" cx="0" cy="0" r="1" gradientUnits="userSpaceOnUse" gradientTransform="translate(1353.64 827.052) rotate(16.6601) scale(118.833 127.81)">
<stop stop-color="#66C7C9"/>
<stop offset="1" stop-color="#66C7C9"/>
</radialGradient>
<radialGradient id="paint17_radial_517_2840" cx="0" cy="0" r="1" gradientUnits="userSpaceOnUse" gradientTransform="translate(1366.56 731.697) rotate(51.5742) scale(193.566 190.494)">
<stop stop-color="white"/>
<stop offset="0.97449" stop-color="white" stop-opacity="0"/>
</radialGradient>
<clipPath id="clip0_517_2840">
<rect x="169.63" y="129" width="178.164" height="178.164" rx="89.0822" transform="rotate(33.2282 169.63 129)" fill="white"/>
</clipPath>
<clipPath id="clip1_517_2840">
<rect x="541.477" y="115" width="195.064" height="212.558" rx="97.5322" transform="rotate(33.2282 541.477 115)" fill="white"/>
</clipPath>
<clipPath id="clip2_517_2840">
<rect x="797.098" y="394" width="190.822" height="191.794" rx="95.411" transform="rotate(33.2282 797.098 394)" fill="white"/>
</clipPath>
<clipPath id="clip3_517_2840">
<rect x="1342.1" width="190.822" height="191.794" rx="95.411" transform="rotate(33.2282 1342.1 0)" fill="white"/>
</clipPath>
<clipPath id="clip4_517_2840">
<rect x="64.4766" y="666" width="195.064" height="212.558" rx="97.5322" transform="rotate(33.2282 64.4766 666)" fill="white"/>
</clipPath>
<clipPath id="clip5_517_2840">
<rect x="1327.48" y="693" width="195.064" height="212.558" rx="97.5322" transform="rotate(33.2282 1327.48 693)" fill="white"/>
</clipPath>
</defs>
</svg>
