<svg width="1440" height="978" viewBox="0 0 1440 978" fill="none" xmlns="http://www.w3.org/2000/svg">
<g opacity="0.8" filter="url(#filter0_ii_529_4008)">
<g clip-path="url(#clip0_529_4008)">
<rect x="164.63" y="129" width="178.164" height="178.164" rx="89.0822" transform="rotate(33.2282 164.63 129)" fill="#66C7C9"/>
<rect x="164.63" y="129" width="178.164" height="178.164" rx="89.0822" transform="rotate(33.2282 164.63 129)" fill="url(#paint0_radial_529_4008)"/>
<rect x="164.63" y="129" width="178.164" height="178.164" rx="89.0822" transform="rotate(33.2282 164.63 129)" fill="url(#paint1_radial_529_4008)"/>
<rect x="164.63" y="129" width="178.164" height="178.164" rx="89.0822" transform="rotate(33.2282 164.63 129)" fill="url(#paint2_radial_529_4008)" fill-opacity="0.7"/>
<g filter="url(#filter1_f_529_4008)">
<path d="M181.189 185.518C182.99 189.233 174.017 194.609 162.448 200.218C150.88 205.827 141.096 209.545 139.295 205.83C137.493 202.115 144.357 192.374 155.926 186.765C167.494 181.156 179.388 181.803 181.189 185.518Z" fill="white"/>
<path d="M178.992 186.549C178.975 186.634 178.905 186.853 178.653 187.217C178.119 187.992 177.068 188.995 175.411 190.196C172.133 192.57 167.165 195.239 161.391 198.038C155.618 200.837 150.444 203.086 146.548 204.189C144.579 204.747 143.14 204.951 142.2 204.891C141.758 204.863 141.542 204.783 141.465 204.744C141.428 204.614 141.343 204.078 141.775 202.923C142.227 201.718 143.116 200.204 144.474 198.539C147.181 195.221 151.505 191.601 156.983 188.945C162.46 186.289 167.979 185.137 172.259 185.068C174.406 185.033 176.145 185.273 177.37 185.665C178.545 186.041 178.913 186.441 178.992 186.549Z" stroke="white" stroke-width="4.846"/>
</g>
<g filter="url(#filter2_f_529_4008)">
<circle cx="132.397" cy="213.015" r="3.25911" transform="rotate(14.0178 132.397 213.015)" fill="white"/>
<circle cx="132.397" cy="213.015" r="2.423" transform="rotate(14.0178 132.397 213.015)" stroke="white" stroke-width="1.67221"/>
</g>
<g filter="url(#filter3_f_529_4008)">
<mask id="path-6-inside-1_529_4008" fill="white">
<ellipse cx="125.172" cy="224.59" rx="3.25911" ry="5.43184" transform="rotate(26.1763 125.172 224.59)"/>
</mask>
<ellipse cx="125.172" cy="224.59" rx="3.25911" ry="5.43184" transform="rotate(26.1763 125.172 224.59)" fill="white"/>
<path d="M123.748 223.89C123.407 224.583 123.025 224.913 122.917 224.983C122.871 225.012 123.011 224.908 123.344 224.855C123.711 224.797 124.293 224.811 124.914 225.116L120.638 233.814C123.574 235.257 126.452 234.238 128.175 233.124C129.993 231.95 131.464 230.164 132.446 228.165L123.748 223.89ZM124.914 225.116C125.534 225.421 125.901 225.874 126.079 226.199C126.241 226.496 126.243 226.67 126.239 226.616C126.228 226.488 126.256 225.984 126.596 225.29L117.898 221.015C116.916 223.013 116.4 225.268 116.581 227.425C116.752 229.469 117.703 232.371 120.638 233.814L124.914 225.116ZM126.596 225.29C126.937 224.597 127.32 224.267 127.428 224.197C127.473 224.168 127.334 224.272 127 224.325C126.634 224.383 126.051 224.369 125.431 224.064L129.706 215.366C126.771 213.923 123.893 214.943 122.169 216.056C120.351 217.23 118.881 219.016 117.898 221.015L126.596 225.29ZM125.431 224.064C124.81 223.759 124.443 223.306 124.266 222.981C124.104 222.684 124.101 222.511 124.106 222.564C124.116 222.692 124.089 223.197 123.748 223.89L132.446 228.165C133.429 226.167 133.944 223.912 133.764 221.755C133.593 219.711 132.642 216.809 129.706 215.366L125.431 224.064Z" fill="white" mask="url(#path-6-inside-1_529_4008)"/>
</g>
<g filter="url(#filter4_f_529_4008)">
<circle cx="189.392" cy="258.581" r="91.7206" transform="rotate(33.2282 189.392 258.581)" stroke="white" stroke-width="34.5277"/>
</g>
</g>
</g>
<g opacity="0.8" filter="url(#filter5_ii_529_4008)">
<g clip-path="url(#clip1_529_4008)">
<rect x="536.477" y="115" width="195.064" height="212.558" rx="97.5322" transform="rotate(33.2282 536.477 115)" fill="#66C7C9"/>
<rect x="536.477" y="115" width="195.064" height="212.558" rx="97.5322" transform="rotate(33.2282 536.477 115)" fill="url(#paint3_radial_529_4008)"/>
<rect x="536.477" y="115" width="195.064" height="212.558" rx="97.5322" transform="rotate(33.2282 536.477 115)" fill="url(#paint4_radial_529_4008)"/>
<rect x="536.477" y="115" width="195.064" height="212.558" rx="97.5322" transform="rotate(33.2282 536.477 115)" fill="url(#paint5_radial_529_4008)" fill-opacity="0.7"/>
<g filter="url(#filter6_f_529_4008)">
<path d="M552.55 180.017C554.408 184.259 544.077 190.918 530.818 197.965C517.558 205.012 506.39 209.779 504.532 205.537C502.674 201.295 510.83 189.652 524.089 182.605C537.349 175.558 550.692 175.776 552.55 180.017Z" fill="white"/>
<path d="M550.41 181.154C550.41 181.154 550.41 181.154 550.411 181.155C550.413 181.157 550.426 181.168 550.404 181.267C550.371 181.42 550.258 181.731 549.926 182.214C549.246 183.204 547.969 184.458 546.035 185.942C542.205 188.881 536.465 192.227 529.845 195.745C523.226 199.263 517.274 202.131 512.8 203.605C510.541 204.35 508.854 204.671 507.726 204.641C507.176 204.627 506.885 204.531 506.755 204.465C506.671 204.421 506.672 204.404 506.672 204.4C506.672 204.4 506.672 204.4 506.672 204.4C506.62 204.282 506.477 203.604 507.101 202.026C507.683 200.553 508.778 198.712 510.402 196.686C513.638 192.648 518.72 188.194 525.062 184.824C531.403 181.454 537.728 179.845 542.61 179.568C545.059 179.429 547.049 179.631 548.457 180.046C549.965 180.491 550.358 181.036 550.41 181.154Z" stroke="white" stroke-width="4.846"/>
</g>
<g filter="url(#filter7_f_529_4008)">
<mask id="path-12-inside-2_529_4008" fill="white">
<ellipse cx="3.60427" cy="3.85489" rx="3.60427" ry="3.85489" transform="matrix(0.976533 0.215366 -0.267168 0.96365 493.965 209.716)"/>
</mask>
<ellipse cx="3.60427" cy="3.85489" rx="3.60427" ry="3.85489" transform="matrix(0.976533 0.215366 -0.267168 0.96365 493.965 209.716)" fill="white"/>
<path d="M495.242 213.94C495.287 213.777 495.411 213.581 495.643 213.431C495.881 213.277 496.277 213.155 496.719 213.252L494.13 222.592C498.982 223.662 503.506 220.357 504.707 216.027L495.242 213.94ZM496.719 213.252C497.161 213.35 497.448 213.623 497.579 213.858C497.705 214.087 497.712 214.312 497.667 214.475L488.203 212.387C487.002 216.717 489.278 221.522 494.13 222.592L496.719 213.252ZM497.667 214.475C497.622 214.638 497.499 214.834 497.267 214.983C497.028 215.137 496.632 215.26 496.19 215.162L498.779 205.823C493.927 204.753 489.403 208.057 488.203 212.387L497.667 214.475ZM496.19 215.162C495.748 215.065 495.461 214.792 495.331 214.556C495.204 214.327 495.197 214.103 495.242 213.94L504.707 216.027C505.907 211.697 503.631 206.893 498.779 205.823L496.19 215.162Z" fill="white" mask="url(#path-12-inside-2_529_4008)"/>
</g>
<g filter="url(#filter8_f_529_4008)">
<mask id="path-14-inside-3_529_4008" fill="white">
<ellipse cx="3.57329" cy="6.47271" rx="3.57329" ry="6.47271" transform="matrix(0.9022 0.431317 -0.450123 0.892967 487.501 220.679)"/>
</mask>
<ellipse cx="3.57329" cy="6.47271" rx="3.57329" ry="6.47271" transform="matrix(0.9022 0.431317 -0.450123 0.892967 487.501 220.679)" fill="white"/>
<path d="M486.663 227.452C486.156 228.458 485.567 229.042 485.257 229.256C485.108 229.359 485.168 229.278 485.454 229.22C485.778 229.154 486.397 229.127 487.079 229.453L482.716 238.108C485.93 239.644 489.054 238.307 490.804 237.099C492.715 235.779 494.305 233.818 495.407 231.632L486.663 227.452ZM487.079 229.453C487.761 229.779 488.118 230.273 488.262 230.563C488.39 230.818 488.361 230.914 488.353 230.736C488.338 230.367 488.452 229.556 488.96 228.55L480.215 224.369C479.114 226.555 478.493 228.979 478.59 231.259C478.678 233.346 479.503 236.572 482.716 238.108L487.079 229.453ZM488.96 228.55C489.467 227.543 490.055 226.959 490.365 226.745C490.514 226.642 490.455 226.723 490.168 226.781C489.844 226.847 489.225 226.874 488.544 226.548L492.906 217.893C489.693 216.357 486.568 217.694 484.819 218.903C482.907 220.223 481.317 222.184 480.215 224.369L488.96 228.55ZM488.544 226.548C487.862 226.222 487.505 225.729 487.36 225.439C487.232 225.183 487.262 225.087 487.269 225.265C487.285 225.635 487.17 226.445 486.663 227.452L495.407 231.632C496.509 229.446 497.129 227.022 497.033 224.742C496.944 222.655 496.119 219.429 492.906 217.893L488.544 226.548Z" fill="white" mask="url(#path-14-inside-3_529_4008)"/>
</g>
<g filter="url(#filter9_f_529_4008)">
<ellipse cx="558.486" cy="264.661" rx="100.421" ry="109.427" transform="rotate(33.2282 558.486 264.661)" stroke="white" stroke-width="34.5277"/>
</g>
</g>
</g>
<g opacity="0.8" filter="url(#filter10_ii_529_4008)">
<g clip-path="url(#clip2_529_4008)">
<rect x="792.098" y="394" width="190.822" height="191.794" rx="95.411" transform="rotate(33.2282 792.098 394)" fill="#66C7C9"/>
<rect x="792.098" y="394" width="190.822" height="191.794" rx="95.411" transform="rotate(33.2282 792.098 394)" fill="url(#paint6_radial_529_4008)"/>
<rect x="792.098" y="394" width="190.822" height="191.794" rx="95.411" transform="rotate(33.2282 792.098 394)" fill="url(#paint7_radial_529_4008)"/>
<rect x="792.098" y="394" width="190.822" height="191.794" rx="95.411" transform="rotate(33.2282 792.098 394)" fill="url(#paint8_radial_529_4008)" fill-opacity="0.7"/>
<g filter="url(#filter11_f_529_4008)">
<path d="M809.719 454.708C811.642 458.696 802.003 464.497 789.58 470.555C777.156 476.613 766.652 480.634 764.729 476.645C762.806 472.656 770.193 462.169 782.616 456.111C795.04 450.053 807.796 450.719 809.719 454.708Z" fill="white"/>
<path d="M807.541 455.77C807.541 455.77 807.553 455.765 807.538 455.842C807.516 455.959 807.43 456.22 807.143 456.637C806.55 457.497 805.4 458.592 803.614 459.891C800.077 462.462 794.728 465.349 788.527 468.372C782.326 471.396 776.759 473.832 772.559 475.033C770.438 475.64 768.87 475.869 767.831 475.805C767.327 475.774 767.07 475.681 766.964 475.625C766.932 475.609 766.917 475.597 766.911 475.592C766.91 475.59 766.909 475.588 766.907 475.583C766.857 475.48 766.698 474.868 767.228 473.457C767.725 472.137 768.694 470.49 770.163 468.687C773.093 465.092 777.763 461.173 783.669 458.293C789.574 455.414 795.524 454.154 800.143 454.069C802.46 454.026 804.345 454.28 805.683 454.706C807.111 455.161 807.491 455.666 807.541 455.77Z" stroke="white" stroke-width="4.846"/>
</g>
<g filter="url(#filter12_f_529_4008)">
<mask id="path-20-inside-4_529_4008" fill="white">
<ellipse cx="3.49258" cy="3.5065" rx="3.49258" ry="3.5065" transform="matrix(0.970602 0.240689 -0.243751 0.969838 754.777 480.144)"/>
</mask>
<ellipse cx="3.49258" cy="3.5065" rx="3.49258" ry="3.5065" transform="matrix(0.970602 0.240689 -0.243751 0.969838 754.777 480.144)" fill="white"/>
<path d="M755.999 484.059C756.175 483.36 756.896 482.902 757.639 483.086L755.277 492.486C759.764 493.599 764.286 490.848 765.406 486.392L755.999 484.059ZM757.639 483.086C758.382 483.27 758.802 484.011 758.626 484.711L749.219 482.378C748.099 486.834 750.789 491.373 755.277 492.486L757.639 483.086ZM758.626 484.711C758.45 485.411 757.729 485.869 756.986 485.684L759.348 476.285C754.861 475.172 750.339 477.922 749.219 482.378L758.626 484.711ZM756.986 485.684C756.243 485.5 755.823 484.759 755.999 484.059L765.406 486.392C766.526 481.936 763.836 477.397 759.348 476.285L756.986 485.684Z" fill="white" mask="url(#path-20-inside-4_529_4008)"/>
</g>
<g filter="url(#filter13_f_529_4008)">
<mask id="path-22-inside-5_529_4008" fill="white">
<ellipse cx="3.49092" cy="5.84692" rx="3.49092" ry="5.84692" transform="matrix(0.897714 0.440579 -0.441689 0.897168 748.982 490.061)"/>
</mask>
<ellipse cx="3.49092" cy="5.84692" rx="3.49092" ry="5.84692" transform="matrix(0.897714 0.440579 -0.441689 0.897168 748.982 490.061)" fill="white"/>
<path d="M748.317 496.247C747.924 497.047 747.468 497.461 747.286 497.579C747.203 497.633 747.305 497.543 747.606 497.495C747.939 497.441 748.494 497.449 749.092 497.742L744.811 506.438C747.815 507.912 750.773 506.863 752.562 505.703C754.448 504.48 755.985 502.615 757.018 500.518L748.317 496.247ZM749.092 497.742C749.689 498.036 750.035 498.47 750.196 498.766C750.341 499.033 750.332 499.169 750.324 499.071C750.307 498.854 750.356 498.241 750.75 497.442L742.05 493.171C741.017 495.269 740.477 497.623 740.659 499.862C740.832 501.984 741.806 504.963 744.811 506.438L749.092 497.742ZM750.75 497.442C751.144 496.642 751.599 496.228 751.782 496.11C751.865 496.056 751.762 496.146 751.462 496.194C751.128 496.248 750.573 496.24 749.976 495.946L754.257 487.251C751.252 485.777 748.294 486.826 746.506 487.986C744.62 489.209 743.082 491.074 742.05 493.171L750.75 497.442ZM749.976 495.946C749.378 495.653 749.033 495.219 748.872 494.923C748.727 494.656 748.735 494.52 748.743 494.618C748.761 494.835 748.711 495.448 748.317 496.247L757.018 500.518C758.05 498.42 758.59 496.066 758.408 493.827C758.236 491.705 757.261 488.726 754.257 487.251L749.976 495.946Z" fill="white" mask="url(#path-22-inside-5_529_4008)"/>
</g>
<g filter="url(#filter14_f_529_4008)">
<ellipse cx="818.336" cy="533.219" rx="98.2368" ry="98.7369" transform="rotate(33.2282 818.336 533.219)" stroke="white" stroke-width="34.5277"/>
</g>
</g>
</g>
<g opacity="0.8" filter="url(#filter15_ii_529_4008)">
<g clip-path="url(#clip3_529_4008)">
<rect x="1337.1" width="190.822" height="191.794" rx="95.411" transform="rotate(33.2282 1337.1 0)" fill="#66C7C9"/>
<rect x="1337.1" width="190.822" height="191.794" rx="95.411" transform="rotate(33.2282 1337.1 0)" fill="url(#paint9_radial_529_4008)"/>
<rect x="1337.1" width="190.822" height="191.794" rx="95.411" transform="rotate(33.2282 1337.1 0)" fill="url(#paint10_radial_529_4008)"/>
<rect x="1337.1" width="190.822" height="191.794" rx="95.411" transform="rotate(33.2282 1337.1 0)" fill="url(#paint11_radial_529_4008)" fill-opacity="0.7"/>
<g filter="url(#filter16_f_529_4008)">
<path d="M1354.72 60.7077C1356.64 64.6963 1347 70.497 1334.58 76.5548C1322.16 82.6127 1311.65 86.6337 1309.73 82.6451C1307.81 78.6565 1315.19 68.1686 1327.62 62.1108C1340.04 56.0529 1352.8 56.719 1354.72 60.7077Z" fill="white"/>
<path d="M1352.54 61.7696C1352.54 61.7699 1352.55 61.7651 1352.54 61.8417C1352.52 61.959 1352.43 62.2202 1352.14 62.6368C1351.55 63.4966 1350.4 64.5922 1348.61 65.891C1345.08 68.462 1339.73 71.3486 1333.53 74.3722C1327.33 77.3958 1321.76 79.8323 1317.56 81.0332C1315.44 81.6399 1313.87 81.8694 1312.83 81.8054C1312.33 81.7744 1312.07 81.6805 1311.96 81.6253C1311.93 81.6086 1311.92 81.5967 1311.91 81.5921C1311.91 81.5904 1311.91 81.5875 1311.91 81.5831C1311.86 81.4797 1311.7 80.8676 1312.23 79.4572C1312.72 78.1369 1313.69 76.4905 1315.16 74.6871C1318.09 71.0919 1322.76 67.1732 1328.67 64.2934C1334.57 61.4136 1340.52 60.154 1345.14 60.0686C1347.46 60.0258 1349.34 60.2802 1350.68 60.7061C1352.11 61.161 1352.49 61.6656 1352.54 61.7696Z" stroke="white" stroke-width="4.846"/>
</g>
<g filter="url(#filter17_f_529_4008)">
<mask id="path-28-inside-6_529_4008" fill="white">
<ellipse cx="3.49258" cy="3.5065" rx="3.49258" ry="3.5065" transform="matrix(0.970602 0.240689 -0.243751 0.969838 1299.78 86.1438)"/>
</mask>
<ellipse cx="3.49258" cy="3.5065" rx="3.49258" ry="3.5065" transform="matrix(0.970602 0.240689 -0.243751 0.969838 1299.78 86.1438)" fill="white"/>
<path d="M1301 90.0594C1301.17 89.3596 1301.9 88.9018 1302.64 89.0861L1300.28 98.4857C1304.76 99.5985 1309.29 96.8483 1310.41 92.3922L1301 90.0594ZM1302.64 89.0861C1303.38 89.2703 1303.8 90.0111 1303.63 90.7109L1294.22 88.3782C1293.1 92.8343 1295.79 97.3729 1300.28 98.4857L1302.64 89.0861ZM1303.63 90.7109C1303.45 91.4107 1302.73 91.8685 1301.99 91.6843L1304.35 82.2846C1299.86 81.1718 1295.34 83.922 1294.22 88.3782L1303.63 90.7109ZM1301.99 91.6843C1301.24 91.5 1300.82 90.7592 1301 90.0594L1310.41 92.3922C1311.53 87.936 1308.84 83.3974 1304.35 82.2846L1301.99 91.6843Z" fill="white" mask="url(#path-28-inside-6_529_4008)"/>
</g>
<g filter="url(#filter18_f_529_4008)">
<mask id="path-30-inside-7_529_4008" fill="white">
<ellipse cx="3.49092" cy="5.84692" rx="3.49092" ry="5.84692" transform="matrix(0.897714 0.440579 -0.441689 0.897168 1293.98 96.0608)"/>
</mask>
<ellipse cx="3.49092" cy="5.84692" rx="3.49092" ry="5.84692" transform="matrix(0.897714 0.440579 -0.441689 0.897168 1293.98 96.0608)" fill="white"/>
<path d="M1293.32 102.247C1292.92 103.047 1292.47 103.461 1292.29 103.579C1292.2 103.633 1292.31 103.543 1292.61 103.495C1292.94 103.441 1293.49 103.449 1294.09 103.742L1289.81 112.438C1292.82 113.912 1295.77 112.863 1297.56 111.703C1299.45 110.48 1300.99 108.615 1302.02 106.518L1293.32 102.247ZM1294.09 103.742C1294.69 104.036 1295.03 104.47 1295.2 104.766C1295.34 105.033 1295.33 105.169 1295.32 105.071C1295.31 104.854 1295.36 104.241 1295.75 103.442L1287.05 99.1714C1286.02 101.269 1285.48 103.623 1285.66 105.862C1285.83 107.984 1286.81 110.963 1289.81 112.438L1294.09 103.742ZM1295.75 103.442C1296.14 102.642 1296.6 102.228 1296.78 102.11C1296.86 102.056 1296.76 102.146 1296.46 102.194C1296.13 102.248 1295.57 102.24 1294.98 101.946L1299.26 93.2511C1296.25 91.7766 1293.29 92.8258 1291.51 93.9858C1289.62 95.2093 1288.08 97.0741 1287.05 99.1714L1295.75 103.442ZM1294.98 101.946C1294.38 101.653 1294.03 101.219 1293.87 100.923C1293.73 100.656 1293.74 100.52 1293.74 100.618C1293.76 100.835 1293.71 101.448 1293.32 102.247L1302.02 106.518C1303.05 104.42 1303.59 102.066 1303.41 99.8272C1303.24 97.7049 1302.26 94.7257 1299.26 93.2511L1294.98 101.946Z" fill="white" mask="url(#path-30-inside-7_529_4008)"/>
</g>
<g filter="url(#filter19_f_529_4008)">
<ellipse cx="1363.34" cy="139.219" rx="98.2368" ry="98.7369" transform="rotate(33.2282 1363.34 139.219)" stroke="white" stroke-width="34.5277"/>
</g>
</g>
</g>
<g opacity="0.8" filter="url(#filter20_ii_529_4008)">
<g clip-path="url(#clip4_529_4008)">
<rect x="59.4766" y="666" width="195.064" height="212.558" rx="97.5322" transform="rotate(33.2282 59.4766 666)" fill="#66C7C9"/>
<rect x="59.4766" y="666" width="195.064" height="212.558" rx="97.5322" transform="rotate(33.2282 59.4766 666)" fill="url(#paint12_radial_529_4008)"/>
<rect x="59.4766" y="666" width="195.064" height="212.558" rx="97.5322" transform="rotate(33.2282 59.4766 666)" fill="url(#paint13_radial_529_4008)"/>
<rect x="59.4766" y="666" width="195.064" height="212.558" rx="97.5322" transform="rotate(33.2282 59.4766 666)" fill="url(#paint14_radial_529_4008)" fill-opacity="0.7"/>
<g filter="url(#filter21_f_529_4008)">
<path d="M75.5497 731.017C77.4077 735.259 67.0773 741.918 53.8176 748.965C40.5579 756.012 29.3902 760.779 27.5322 756.537C25.6743 752.295 33.8297 740.652 47.0893 733.605C60.349 726.558 73.6918 726.776 75.5497 731.017Z" fill="white"/>
<path d="M73.4101 732.154C73.4102 732.154 73.4103 732.154 73.4105 732.155C73.4131 732.157 73.4256 732.168 73.4042 732.267C73.371 732.42 73.2579 732.731 72.9262 733.214C72.246 734.204 70.9691 735.458 69.0353 736.942C65.2049 739.881 59.465 743.227 52.8454 746.745C46.2259 750.263 40.2744 753.131 35.7999 754.605C33.5408 755.35 31.854 755.671 30.7264 755.641C30.1764 755.627 29.8847 755.531 29.7555 755.465C29.671 755.421 29.6717 755.404 29.6718 755.4C29.6719 755.4 29.6719 755.4 29.6718 755.4C29.6202 755.282 29.4773 754.604 30.1007 753.026C30.6828 751.553 31.7781 749.712 33.4016 747.686C36.6382 743.648 41.7201 739.194 48.0615 735.824C54.4029 732.454 60.7284 730.845 65.6103 730.568C68.0592 730.429 70.0485 730.631 71.457 731.046C72.9652 731.491 73.3582 732.036 73.4101 732.154Z" stroke="white" stroke-width="4.846"/>
</g>
<g filter="url(#filter22_f_529_4008)">
<mask id="path-36-inside-8_529_4008" fill="white">
<ellipse cx="3.60427" cy="3.85489" rx="3.60427" ry="3.85489" transform="matrix(0.976533 0.215366 -0.267168 0.96365 16.9648 760.716)"/>
</mask>
<ellipse cx="3.60427" cy="3.85489" rx="3.60427" ry="3.85489" transform="matrix(0.976533 0.215366 -0.267168 0.96365 16.9648 760.716)" fill="white"/>
<path d="M18.242 764.94C18.2872 764.777 18.4107 764.581 18.6427 764.431C18.8813 764.277 19.2775 764.155 19.7194 764.252L17.13 773.592C21.9821 774.662 26.5061 771.357 27.7066 767.027L18.242 764.94ZM19.7194 764.252C20.1613 764.35 20.4479 764.623 20.5785 764.858C20.7055 765.087 20.7124 765.312 20.6672 765.475L11.2027 763.387C10.0022 767.717 12.278 772.522 17.13 773.592L19.7194 764.252ZM20.6672 765.475C20.622 765.638 20.4986 765.834 20.2666 765.983C20.0279 766.137 19.6318 766.26 19.1898 766.162L21.7792 756.823C16.9272 755.753 12.4031 759.057 11.2027 763.387L20.6672 765.475ZM19.1898 766.162C18.7479 766.065 18.4613 765.792 18.3307 765.556C18.2038 765.327 18.1968 765.103 18.242 764.94L27.7066 767.027C28.9071 762.697 26.6313 757.893 21.7792 756.823L19.1898 766.162Z" fill="white" mask="url(#path-36-inside-8_529_4008)"/>
</g>
<g filter="url(#filter23_f_529_4008)">
<mask id="path-38-inside-9_529_4008" fill="white">
<ellipse cx="3.57329" cy="6.47271" rx="3.57329" ry="6.47271" transform="matrix(0.9022 0.431317 -0.450123 0.892967 10.501 771.679)"/>
</mask>
<ellipse cx="3.57329" cy="6.47271" rx="3.57329" ry="6.47271" transform="matrix(0.9022 0.431317 -0.450123 0.892967 10.501 771.679)" fill="white"/>
<path d="M9.66305 778.452C9.15565 779.458 8.56726 780.042 8.25738 780.256C8.10836 780.359 8.16796 780.278 8.45409 780.22C8.77827 780.154 9.39714 780.127 10.0791 780.453L5.71648 789.108C8.92964 790.644 12.0544 789.307 13.804 788.099C15.7154 786.779 17.3055 784.818 18.4072 782.632L9.66305 778.452ZM10.0791 780.453C10.761 780.779 11.1175 781.273 11.2624 781.563C11.3903 781.818 11.3608 781.914 11.3533 781.736C11.3376 781.367 11.4521 780.556 11.9595 779.55L3.2154 775.369C2.11371 777.555 1.49313 779.979 1.58977 782.259C1.67824 784.346 2.50332 787.572 5.71648 789.108L10.0791 780.453ZM11.9595 779.55C12.4669 778.543 13.0553 777.959 13.3652 777.745C13.5142 777.642 13.4546 777.723 13.1685 777.781C12.8443 777.847 12.2254 777.874 11.5435 777.548L15.9061 768.893C12.6929 767.357 9.56817 768.694 7.81854 769.903C5.90714 771.223 4.3171 773.184 3.2154 775.369L11.9595 779.55ZM11.5435 777.548C10.8616 777.222 10.5051 776.729 10.3602 776.439C10.2323 776.183 10.2617 776.087 10.2693 776.265C10.2849 776.635 10.1704 777.445 9.66305 778.452L18.4072 782.632C19.5089 780.446 20.1294 778.022 20.0328 775.742C19.9443 773.655 19.1193 770.429 15.9061 768.893L11.5435 777.548Z" fill="white" mask="url(#path-38-inside-9_529_4008)"/>
</g>
<g filter="url(#filter24_f_529_4008)">
<ellipse cx="81.4857" cy="815.661" rx="100.421" ry="109.427" transform="rotate(33.2282 81.4857 815.661)" stroke="white" stroke-width="34.5277"/>
</g>
</g>
</g>
<g opacity="0.8" filter="url(#filter25_ii_529_4008)">
<g clip-path="url(#clip5_529_4008)">
<rect x="1322.48" y="693" width="195.064" height="212.558" rx="97.5322" transform="rotate(33.2282 1322.48 693)" fill="#66C7C9"/>
<rect x="1322.48" y="693" width="195.064" height="212.558" rx="97.5322" transform="rotate(33.2282 1322.48 693)" fill="url(#paint15_radial_529_4008)"/>
<rect x="1322.48" y="693" width="195.064" height="212.558" rx="97.5322" transform="rotate(33.2282 1322.48 693)" fill="url(#paint16_radial_529_4008)"/>
<rect x="1322.48" y="693" width="195.064" height="212.558" rx="97.5322" transform="rotate(33.2282 1322.48 693)" fill="url(#paint17_radial_529_4008)" fill-opacity="0.7"/>
<g filter="url(#filter26_f_529_4008)">
<path d="M1338.55 758.017C1340.41 762.259 1330.08 768.918 1316.82 775.965C1303.56 783.012 1292.39 787.779 1290.53 783.537C1288.67 779.295 1296.83 767.652 1310.09 760.605C1323.35 753.558 1336.69 753.776 1338.55 758.017Z" fill="white"/>
<path d="M1336.41 759.154C1336.41 759.154 1336.41 759.154 1336.41 759.155C1336.41 759.157 1336.43 759.168 1336.4 759.267C1336.37 759.42 1336.26 759.731 1335.93 760.214C1335.25 761.204 1333.97 762.458 1332.04 763.942C1328.2 766.881 1322.46 770.227 1315.85 773.745C1309.23 777.263 1303.27 780.131 1298.8 781.605C1296.54 782.35 1294.85 782.671 1293.73 782.641C1293.18 782.627 1292.88 782.531 1292.76 782.465C1292.67 782.421 1292.67 782.404 1292.67 782.4C1292.67 782.4 1292.67 782.4 1292.67 782.4C1292.62 782.282 1292.48 781.604 1293.1 780.026C1293.68 778.553 1294.78 776.712 1296.4 774.686C1299.64 770.648 1304.72 766.194 1311.06 762.824C1317.4 759.454 1323.73 757.845 1328.61 757.568C1331.06 757.429 1333.05 757.631 1334.46 758.046C1335.97 758.491 1336.36 759.036 1336.41 759.154Z" stroke="white" stroke-width="4.846"/>
</g>
<g filter="url(#filter27_f_529_4008)">
<mask id="path-44-inside-10_529_4008" fill="white">
<ellipse cx="3.60427" cy="3.85489" rx="3.60427" ry="3.85489" transform="matrix(0.976533 0.215366 -0.267168 0.96365 1279.96 787.716)"/>
</mask>
<ellipse cx="3.60427" cy="3.85489" rx="3.60427" ry="3.85489" transform="matrix(0.976533 0.215366 -0.267168 0.96365 1279.96 787.716)" fill="white"/>
<path d="M1281.24 791.94C1281.29 791.777 1281.41 791.581 1281.64 791.431C1281.88 791.277 1282.28 791.155 1282.72 791.252L1280.13 800.592C1284.98 801.662 1289.51 798.357 1290.71 794.027L1281.24 791.94ZM1282.72 791.252C1283.16 791.35 1283.45 791.623 1283.58 791.858C1283.71 792.087 1283.71 792.312 1283.67 792.475L1274.2 790.387C1273 794.717 1275.28 799.522 1280.13 800.592L1282.72 791.252ZM1283.67 792.475C1283.62 792.638 1283.5 792.834 1283.27 792.983C1283.03 793.137 1282.63 793.26 1282.19 793.162L1284.78 783.823C1279.93 782.753 1275.4 786.057 1274.2 790.387L1283.67 792.475ZM1282.19 793.162C1281.75 793.065 1281.46 792.792 1281.33 792.556C1281.2 792.327 1281.2 792.103 1281.24 791.94L1290.71 794.027C1291.91 789.697 1289.63 784.893 1284.78 783.823L1282.19 793.162Z" fill="white" mask="url(#path-44-inside-10_529_4008)"/>
</g>
<g filter="url(#filter28_f_529_4008)">
<mask id="path-46-inside-11_529_4008" fill="white">
<ellipse cx="3.57329" cy="6.47271" rx="3.57329" ry="6.47271" transform="matrix(0.9022 0.431317 -0.450123 0.892967 1273.5 798.679)"/>
</mask>
<ellipse cx="3.57329" cy="6.47271" rx="3.57329" ry="6.47271" transform="matrix(0.9022 0.431317 -0.450123 0.892967 1273.5 798.679)" fill="white"/>
<path d="M1272.66 805.452C1272.16 806.458 1271.57 807.042 1271.26 807.256C1271.11 807.359 1271.17 807.278 1271.45 807.22C1271.78 807.154 1272.4 807.127 1273.08 807.453L1268.72 816.108C1271.93 817.644 1275.05 816.307 1276.8 815.099C1278.72 813.779 1280.31 811.818 1281.41 809.632L1272.66 805.452ZM1273.08 807.453C1273.76 807.779 1274.12 808.273 1274.26 808.563C1274.39 808.818 1274.36 808.914 1274.35 808.736C1274.34 808.367 1274.45 807.556 1274.96 806.55L1266.22 802.369C1265.11 804.555 1264.49 806.979 1264.59 809.259C1264.68 811.346 1265.5 814.572 1268.72 816.108L1273.08 807.453ZM1274.96 806.55C1275.47 805.543 1276.06 804.959 1276.37 804.745C1276.51 804.642 1276.45 804.723 1276.17 804.781C1275.84 804.847 1275.23 804.874 1274.54 804.548L1278.91 795.893C1275.69 794.357 1272.57 795.694 1270.82 796.903C1268.91 798.223 1267.32 800.184 1266.22 802.369L1274.96 806.55ZM1274.54 804.548C1273.86 804.222 1273.51 803.729 1273.36 803.439C1273.23 803.183 1273.26 803.087 1273.27 803.265C1273.28 803.635 1273.17 804.445 1272.66 805.452L1281.41 809.632C1282.51 807.446 1283.13 805.022 1283.03 802.742C1282.94 800.655 1282.12 797.429 1278.91 795.893L1274.54 804.548Z" fill="white" mask="url(#path-46-inside-11_529_4008)"/>
</g>
<g filter="url(#filter29_f_529_4008)">
<ellipse cx="1344.49" cy="842.661" rx="100.421" ry="109.427" transform="rotate(33.2282 1344.49 842.661)" stroke="white" stroke-width="34.5277"/>
</g>
</g>
</g>
<defs>
<filter id="filter0_ii_529_4008" x="64.577" y="126.577" width="258.778" height="258.778" filterUnits="userSpaceOnUse" color-interpolation-filters="sRGB">
<feFlood flood-opacity="0" result="BackgroundImageFix"/>
<feBlend mode="normal" in="SourceGraphic" in2="BackgroundImageFix" result="shape"/>
<feColorMatrix in="SourceAlpha" type="matrix" values="0 0 0 0 0 0 0 0 0 0 0 0 0 0 0 0 0 0 127 0" result="hardAlpha"/>
<feOffset dx="-2.423" dy="-2.423"/>
<feGaussianBlur stdDeviation="23.3214"/>
<feComposite in2="hardAlpha" operator="arithmetic" k2="-1" k3="1"/>
<feColorMatrix type="matrix" values="0 0 0 0 1 0 0 0 0 1 0 0 0 0 1 0 0 0 0.22 0"/>
<feBlend mode="normal" in2="shape" result="effect1_innerShadow_529_4008"/>
<feColorMatrix in="SourceAlpha" type="matrix" values="0 0 0 0 0 0 0 0 0 0 0 0 0 0 0 0 0 0 127 0" result="hardAlpha"/>
<feOffset dx="9.69199" dy="9.69199"/>
<feGaussianBlur stdDeviation="49.6715"/>
<feComposite in2="hardAlpha" operator="arithmetic" k2="-1" k3="1"/>
<feColorMatrix type="matrix" values="0 0 0 0 1 0 0 0 0 1 0 0 0 0 1 0 0 0 0.25 0"/>
<feBlend mode="normal" in2="effect1_innerShadow_529_4008" result="effect2_innerShadow_529_4008"/>
</filter>
<filter id="filter1_f_529_4008" x="122.048" y="165.68" width="76.3331" height="58.6051" filterUnits="userSpaceOnUse" color-interpolation-filters="sRGB">
<feFlood flood-opacity="0" result="BackgroundImageFix"/>
<feBlend mode="normal" in="SourceGraphic" in2="BackgroundImageFix" result="shape"/>
<feGaussianBlur stdDeviation="8.48049" result="effect1_foregroundBlur_529_4008"/>
</filter>
<filter id="filter2_f_529_4008" x="120.05" y="200.669" width="24.693" height="24.6923" filterUnits="userSpaceOnUse" color-interpolation-filters="sRGB">
<feFlood flood-opacity="0" result="BackgroundImageFix"/>
<feBlend mode="normal" in="SourceGraphic" in2="BackgroundImageFix" result="shape"/>
<feGaussianBlur stdDeviation="4.54312" result="effect1_foregroundBlur_529_4008"/>
</filter>
<filter id="filter3_f_529_4008" x="111.093" y="209.209" width="28.158" height="30.763" filterUnits="userSpaceOnUse" color-interpolation-filters="sRGB">
<feFlood flood-opacity="0" result="BackgroundImageFix"/>
<feBlend mode="normal" in="SourceGraphic" in2="BackgroundImageFix" result="shape"/>
<feGaussianBlur stdDeviation="5.14887" result="effect1_foregroundBlur_529_4008"/>
</filter>
<filter id="filter4_f_529_4008" x="34.3576" y="103.547" width="310.068" height="310.068" filterUnits="userSpaceOnUse" color-interpolation-filters="sRGB">
<feFlood flood-opacity="0" result="BackgroundImageFix"/>
<feBlend mode="normal" in="SourceGraphic" in2="BackgroundImageFix" result="shape"/>
<feGaussianBlur stdDeviation="23.0185" result="effect1_foregroundBlur_529_4008"/>
</filter>
<filter id="filter5_ii_529_4008" x="417.577" y="112.577" width="291.761" height="296.809" filterUnits="userSpaceOnUse" color-interpolation-filters="sRGB">
<feFlood flood-opacity="0" result="BackgroundImageFix"/>
<feBlend mode="normal" in="SourceGraphic" in2="BackgroundImageFix" result="shape"/>
<feColorMatrix in="SourceAlpha" type="matrix" values="0 0 0 0 0 0 0 0 0 0 0 0 0 0 0 0 0 0 127 0" result="hardAlpha"/>
<feOffset dx="-2.423" dy="-2.423"/>
<feGaussianBlur stdDeviation="23.3214"/>
<feComposite in2="hardAlpha" operator="arithmetic" k2="-1" k3="1"/>
<feColorMatrix type="matrix" values="0 0 0 0 1 0 0 0 0 1 0 0 0 0 1 0 0 0 0.22 0"/>
<feBlend mode="normal" in2="shape" result="effect1_innerShadow_529_4008"/>
<feColorMatrix in="SourceAlpha" type="matrix" values="0 0 0 0 0 0 0 0 0 0 0 0 0 0 0 0 0 0 127 0" result="hardAlpha"/>
<feOffset dx="9.69199" dy="9.69199"/>
<feGaussianBlur stdDeviation="49.6715"/>
<feComposite in2="hardAlpha" operator="arithmetic" k2="-1" k3="1"/>
<feColorMatrix type="matrix" values="0 0 0 0 1 0 0 0 0 1 0 0 0 0 1 0 0 0 0.25 0"/>
<feBlend mode="normal" in2="effect1_innerShadow_529_4008" result="effect2_innerShadow_529_4008"/>
</filter>
<filter id="filter6_f_529_4008" x="487.309" y="160.07" width="82.419" height="64.0284" filterUnits="userSpaceOnUse" color-interpolation-filters="sRGB">
<feFlood flood-opacity="0" result="BackgroundImageFix"/>
<feBlend mode="normal" in="SourceGraphic" in2="BackgroundImageFix" result="shape"/>
<feGaussianBlur stdDeviation="8.48049" result="effect1_foregroundBlur_529_4008"/>
</filter>
<filter id="filter7_f_529_4008" x="483.7" y="201.325" width="25.5094" height="25.764" filterUnits="userSpaceOnUse" color-interpolation-filters="sRGB">
<feFlood flood-opacity="0" result="BackgroundImageFix"/>
<feBlend mode="normal" in="SourceGraphic" in2="BackgroundImageFix" result="shape"/>
<feGaussianBlur stdDeviation="4.54312" result="effect1_foregroundBlur_529_4008"/>
</filter>
<filter id="filter8_f_529_4008" x="473.168" y="211.72" width="29.2859" height="32.562" filterUnits="userSpaceOnUse" color-interpolation-filters="sRGB">
<feFlood flood-opacity="0" result="BackgroundImageFix"/>
<feBlend mode="normal" in="SourceGraphic" in2="BackgroundImageFix" result="shape"/>
<feGaussianBlur stdDeviation="5.14887" result="effect1_foregroundBlur_529_4008"/>
</filter>
<filter id="filter9_f_529_4008" x="392" y="94.4935" width="332.97" height="340.334" filterUnits="userSpaceOnUse" color-interpolation-filters="sRGB">
<feFlood flood-opacity="0" result="BackgroundImageFix"/>
<feBlend mode="normal" in="SourceGraphic" in2="BackgroundImageFix" result="shape"/>
<feGaussianBlur stdDeviation="23.0185" result="effect1_foregroundBlur_529_4008"/>
</filter>
<filter id="filter10_ii_529_4008" x="684.577" y="391.577" width="276.834" height="277.115" filterUnits="userSpaceOnUse" color-interpolation-filters="sRGB">
<feFlood flood-opacity="0" result="BackgroundImageFix"/>
<feBlend mode="normal" in="SourceGraphic" in2="BackgroundImageFix" result="shape"/>
<feColorMatrix in="SourceAlpha" type="matrix" values="0 0 0 0 0 0 0 0 0 0 0 0 0 0 0 0 0 0 127 0" result="hardAlpha"/>
<feOffset dx="-2.423" dy="-2.423"/>
<feGaussianBlur stdDeviation="23.3214"/>
<feComposite in2="hardAlpha" operator="arithmetic" k2="-1" k3="1"/>
<feColorMatrix type="matrix" values="0 0 0 0 1 0 0 0 0 1 0 0 0 0 1 0 0 0 0.22 0"/>
<feBlend mode="normal" in2="shape" result="effect1_innerShadow_529_4008"/>
<feColorMatrix in="SourceAlpha" type="matrix" values="0 0 0 0 0 0 0 0 0 0 0 0 0 0 0 0 0 0 127 0" result="hardAlpha"/>
<feOffset dx="9.69199" dy="9.69199"/>
<feGaussianBlur stdDeviation="49.6715"/>
<feComposite in2="hardAlpha" operator="arithmetic" k2="-1" k3="1"/>
<feColorMatrix type="matrix" values="0 0 0 0 1 0 0 0 0 1 0 0 0 0 1 0 0 0 0.25 0"/>
<feBlend mode="normal" in2="effect1_innerShadow_529_4008" result="effect2_innerShadow_529_4008"/>
</filter>
<filter id="filter11_f_529_4008" x="747.465" y="434.676" width="79.4601" height="60.5282" filterUnits="userSpaceOnUse" color-interpolation-filters="sRGB">
<feFlood flood-opacity="0" result="BackgroundImageFix"/>
<feBlend mode="normal" in="SourceGraphic" in2="BackgroundImageFix" result="shape"/>
<feGaussianBlur stdDeviation="8.48049" result="effect1_foregroundBlur_529_4008"/>
</filter>
<filter id="filter12_f_529_4008" x="744.729" y="471.795" width="25.1666" height="25.1803" filterUnits="userSpaceOnUse" color-interpolation-filters="sRGB">
<feFlood flood-opacity="0" result="BackgroundImageFix"/>
<feBlend mode="normal" in="SourceGraphic" in2="BackgroundImageFix" result="shape"/>
<feGaussianBlur stdDeviation="4.54312" result="effect1_foregroundBlur_529_4008"/>
</filter>
<filter id="filter13_f_529_4008" x="735.175" y="481.079" width="28.7176" height="31.5315" filterUnits="userSpaceOnUse" color-interpolation-filters="sRGB">
<feFlood flood-opacity="0" result="BackgroundImageFix"/>
<feBlend mode="normal" in="SourceGraphic" in2="BackgroundImageFix" result="shape"/>
<feGaussianBlur stdDeviation="5.14887" result="effect1_foregroundBlur_529_4008"/>
</filter>
<filter id="filter14_f_529_4008" x="656.637" y="371.316" width="323.397" height="323.807" filterUnits="userSpaceOnUse" color-interpolation-filters="sRGB">
<feFlood flood-opacity="0" result="BackgroundImageFix"/>
<feBlend mode="normal" in="SourceGraphic" in2="BackgroundImageFix" result="shape"/>
<feGaussianBlur stdDeviation="23.0185" result="effect1_foregroundBlur_529_4008"/>
</filter>
<filter id="filter15_ii_529_4008" x="1229.58" y="-2.423" width="276.834" height="277.115" filterUnits="userSpaceOnUse" color-interpolation-filters="sRGB">
<feFlood flood-opacity="0" result="BackgroundImageFix"/>
<feBlend mode="normal" in="SourceGraphic" in2="BackgroundImageFix" result="shape"/>
<feColorMatrix in="SourceAlpha" type="matrix" values="0 0 0 0 0 0 0 0 0 0 0 0 0 0 0 0 0 0 127 0" result="hardAlpha"/>
<feOffset dx="-2.423" dy="-2.423"/>
<feGaussianBlur stdDeviation="23.3214"/>
<feComposite in2="hardAlpha" operator="arithmetic" k2="-1" k3="1"/>
<feColorMatrix type="matrix" values="0 0 0 0 1 0 0 0 0 1 0 0 0 0 1 0 0 0 0.22 0"/>
<feBlend mode="normal" in2="shape" result="effect1_innerShadow_529_4008"/>
<feColorMatrix in="SourceAlpha" type="matrix" values="0 0 0 0 0 0 0 0 0 0 0 0 0 0 0 0 0 0 127 0" result="hardAlpha"/>
<feOffset dx="9.69199" dy="9.69199"/>
<feGaussianBlur stdDeviation="49.6715"/>
<feComposite in2="hardAlpha" operator="arithmetic" k2="-1" k3="1"/>
<feColorMatrix type="matrix" values="0 0 0 0 1 0 0 0 0 1 0 0 0 0 1 0 0 0 0.25 0"/>
<feBlend mode="normal" in2="effect1_innerShadow_529_4008" result="effect2_innerShadow_529_4008"/>
</filter>
<filter id="filter16_f_529_4008" x="1292.46" y="40.6757" width="79.4601" height="60.5282" filterUnits="userSpaceOnUse" color-interpolation-filters="sRGB">
<feFlood flood-opacity="0" result="BackgroundImageFix"/>
<feBlend mode="normal" in="SourceGraphic" in2="BackgroundImageFix" result="shape"/>
<feGaussianBlur stdDeviation="8.48049" result="effect1_foregroundBlur_529_4008"/>
</filter>
<filter id="filter17_f_529_4008" x="1289.73" y="77.7951" width="25.1666" height="25.1803" filterUnits="userSpaceOnUse" color-interpolation-filters="sRGB">
<feFlood flood-opacity="0" result="BackgroundImageFix"/>
<feBlend mode="normal" in="SourceGraphic" in2="BackgroundImageFix" result="shape"/>
<feGaussianBlur stdDeviation="4.54312" result="effect1_foregroundBlur_529_4008"/>
</filter>
<filter id="filter18_f_529_4008" x="1280.17" y="87.0787" width="28.7176" height="31.5315" filterUnits="userSpaceOnUse" color-interpolation-filters="sRGB">
<feFlood flood-opacity="0" result="BackgroundImageFix"/>
<feBlend mode="normal" in="SourceGraphic" in2="BackgroundImageFix" result="shape"/>
<feGaussianBlur stdDeviation="5.14887" result="effect1_foregroundBlur_529_4008"/>
</filter>
<filter id="filter19_f_529_4008" x="1201.64" y="-22.6844" width="323.397" height="323.807" filterUnits="userSpaceOnUse" color-interpolation-filters="sRGB">
<feFlood flood-opacity="0" result="BackgroundImageFix"/>
<feBlend mode="normal" in="SourceGraphic" in2="BackgroundImageFix" result="shape"/>
<feGaussianBlur stdDeviation="23.0185" result="effect1_foregroundBlur_529_4008"/>
</filter>
<filter id="filter20_ii_529_4008" x="-59.423" y="663.577" width="291.761" height="296.809" filterUnits="userSpaceOnUse" color-interpolation-filters="sRGB">
<feFlood flood-opacity="0" result="BackgroundImageFix"/>
<feBlend mode="normal" in="SourceGraphic" in2="BackgroundImageFix" result="shape"/>
<feColorMatrix in="SourceAlpha" type="matrix" values="0 0 0 0 0 0 0 0 0 0 0 0 0 0 0 0 0 0 127 0" result="hardAlpha"/>
<feOffset dx="-2.423" dy="-2.423"/>
<feGaussianBlur stdDeviation="23.3214"/>
<feComposite in2="hardAlpha" operator="arithmetic" k2="-1" k3="1"/>
<feColorMatrix type="matrix" values="0 0 0 0 1 0 0 0 0 1 0 0 0 0 1 0 0 0 0.22 0"/>
<feBlend mode="normal" in2="shape" result="effect1_innerShadow_529_4008"/>
<feColorMatrix in="SourceAlpha" type="matrix" values="0 0 0 0 0 0 0 0 0 0 0 0 0 0 0 0 0 0 127 0" result="hardAlpha"/>
<feOffset dx="9.69199" dy="9.69199"/>
<feGaussianBlur stdDeviation="49.6715"/>
<feComposite in2="hardAlpha" operator="arithmetic" k2="-1" k3="1"/>
<feColorMatrix type="matrix" values="0 0 0 0 1 0 0 0 0 1 0 0 0 0 1 0 0 0 0.25 0"/>
<feBlend mode="normal" in2="effect1_innerShadow_529_4008" result="effect2_innerShadow_529_4008"/>
</filter>
<filter id="filter21_f_529_4008" x="10.3085" y="711.07" width="82.419" height="64.0284" filterUnits="userSpaceOnUse" color-interpolation-filters="sRGB">
<feFlood flood-opacity="0" result="BackgroundImageFix"/>
<feBlend mode="normal" in="SourceGraphic" in2="BackgroundImageFix" result="shape"/>
<feGaussianBlur stdDeviation="8.48049" result="effect1_foregroundBlur_529_4008"/>
</filter>
<filter id="filter22_f_529_4008" x="6.69989" y="752.325" width="25.5094" height="25.764" filterUnits="userSpaceOnUse" color-interpolation-filters="sRGB">
<feFlood flood-opacity="0" result="BackgroundImageFix"/>
<feBlend mode="normal" in="SourceGraphic" in2="BackgroundImageFix" result="shape"/>
<feGaussianBlur stdDeviation="4.54312" result="effect1_foregroundBlur_529_4008"/>
</filter>
<filter id="filter23_f_529_4008" x="-3.83192" y="762.72" width="29.2859" height="32.562" filterUnits="userSpaceOnUse" color-interpolation-filters="sRGB">
<feFlood flood-opacity="0" result="BackgroundImageFix"/>
<feBlend mode="normal" in="SourceGraphic" in2="BackgroundImageFix" result="shape"/>
<feGaussianBlur stdDeviation="5.14887" result="effect1_foregroundBlur_529_4008"/>
</filter>
<filter id="filter24_f_529_4008" x="-84.9999" y="645.494" width="332.97" height="340.334" filterUnits="userSpaceOnUse" color-interpolation-filters="sRGB">
<feFlood flood-opacity="0" result="BackgroundImageFix"/>
<feBlend mode="normal" in="SourceGraphic" in2="BackgroundImageFix" result="shape"/>
<feGaussianBlur stdDeviation="23.0185" result="effect1_foregroundBlur_529_4008"/>
</filter>
<filter id="filter25_ii_529_4008" x="1203.58" y="690.577" width="291.761" height="296.809" filterUnits="userSpaceOnUse" color-interpolation-filters="sRGB">
<feFlood flood-opacity="0" result="BackgroundImageFix"/>
<feBlend mode="normal" in="SourceGraphic" in2="BackgroundImageFix" result="shape"/>
<feColorMatrix in="SourceAlpha" type="matrix" values="0 0 0 0 0 0 0 0 0 0 0 0 0 0 0 0 0 0 127 0" result="hardAlpha"/>
<feOffset dx="-2.423" dy="-2.423"/>
<feGaussianBlur stdDeviation="23.3214"/>
<feComposite in2="hardAlpha" operator="arithmetic" k2="-1" k3="1"/>
<feColorMatrix type="matrix" values="0 0 0 0 1 0 0 0 0 1 0 0 0 0 1 0 0 0 0.22 0"/>
<feBlend mode="normal" in2="shape" result="effect1_innerShadow_529_4008"/>
<feColorMatrix in="SourceAlpha" type="matrix" values="0 0 0 0 0 0 0 0 0 0 0 0 0 0 0 0 0 0 127 0" result="hardAlpha"/>
<feOffset dx="9.69199" dy="9.69199"/>
<feGaussianBlur stdDeviation="49.6715"/>
<feComposite in2="hardAlpha" operator="arithmetic" k2="-1" k3="1"/>
<feColorMatrix type="matrix" values="0 0 0 0 1 0 0 0 0 1 0 0 0 0 1 0 0 0 0.25 0"/>
<feBlend mode="normal" in2="effect1_innerShadow_529_4008" result="effect2_innerShadow_529_4008"/>
</filter>
<filter id="filter26_f_529_4008" x="1273.31" y="738.07" width="82.419" height="64.0284" filterUnits="userSpaceOnUse" color-interpolation-filters="sRGB">
<feFlood flood-opacity="0" result="BackgroundImageFix"/>
<feBlend mode="normal" in="SourceGraphic" in2="BackgroundImageFix" result="shape"/>
<feGaussianBlur stdDeviation="8.48049" result="effect1_foregroundBlur_529_4008"/>
</filter>
<filter id="filter27_f_529_4008" x="1269.7" y="779.325" width="25.5094" height="25.764" filterUnits="userSpaceOnUse" color-interpolation-filters="sRGB">
<feFlood flood-opacity="0" result="BackgroundImageFix"/>
<feBlend mode="normal" in="SourceGraphic" in2="BackgroundImageFix" result="shape"/>
<feGaussianBlur stdDeviation="4.54312" result="effect1_foregroundBlur_529_4008"/>
</filter>
<filter id="filter28_f_529_4008" x="1259.17" y="789.72" width="29.2859" height="32.562" filterUnits="userSpaceOnUse" color-interpolation-filters="sRGB">
<feFlood flood-opacity="0" result="BackgroundImageFix"/>
<feBlend mode="normal" in="SourceGraphic" in2="BackgroundImageFix" result="shape"/>
<feGaussianBlur stdDeviation="5.14887" result="effect1_foregroundBlur_529_4008"/>
</filter>
<filter id="filter29_f_529_4008" x="1178" y="672.494" width="332.97" height="340.334" filterUnits="userSpaceOnUse" color-interpolation-filters="sRGB">
<feFlood flood-opacity="0" result="BackgroundImageFix"/>
<feBlend mode="normal" in="SourceGraphic" in2="BackgroundImageFix" result="shape"/>
<feGaussianBlur stdDeviation="23.0185" result="effect1_foregroundBlur_529_4008"/>
</filter>
<radialGradient id="paint0_radial_529_4008" cx="0" cy="0" r="1" gradientUnits="userSpaceOnUse" gradientTransform="translate(290.183 218.082) rotate(125.175) scale(99.6792)">
<stop stop-color="#83D5D6"/>
<stop offset="1" stop-color="#C2EFF0"/>
</radialGradient>
<radialGradient id="paint1_radial_529_4008" cx="0" cy="0" r="1" gradientUnits="userSpaceOnUse" gradientTransform="translate(188.53 241.362) rotate(15.3564) scale(107.831)">
<stop stop-color="#66C7C9"/>
<stop offset="1" stop-color="#66C7C9"/>
</radialGradient>
<radialGradient id="paint2_radial_529_4008" cx="0" cy="0" r="1" gradientUnits="userSpaceOnUse" gradientTransform="translate(200.325 161.436) rotate(49.1576) scale(168.015)">
<stop stop-color="white"/>
<stop offset="0.97449" stop-color="white" stop-opacity="0"/>
</radialGradient>
<radialGradient id="paint3_radial_529_4008" cx="0" cy="0" r="1" gradientUnits="userSpaceOnUse" gradientTransform="translate(673.939 221.279) rotate(122.893) scale(115.765 112.11)">
<stop stop-color="#83D5D6"/>
<stop offset="1" stop-color="#C2EFF0"/>
</radialGradient>
<radialGradient id="paint4_radial_529_4008" cx="0" cy="0" r="1" gradientUnits="userSpaceOnUse" gradientTransform="translate(562.644 249.052) rotate(16.6601) scale(118.833 127.81)">
<stop stop-color="#66C7C9"/>
<stop offset="1" stop-color="#66C7C9"/>
</radialGradient>
<radialGradient id="paint5_radial_529_4008" cx="0" cy="0" r="1" gradientUnits="userSpaceOnUse" gradientTransform="translate(575.557 153.697) rotate(51.5742) scale(193.566 190.494)">
<stop stop-color="white"/>
<stop offset="0.97449" stop-color="white" stop-opacity="0"/>
</radialGradient>
<radialGradient id="paint6_radial_529_4008" cx="0" cy="0" r="1" gradientUnits="userSpaceOnUse" gradientTransform="translate(926.571 489.897) rotate(125.038) scale(107.124 106.94)">
<stop stop-color="#83D5D6"/>
<stop offset="1" stop-color="#C2EFF0"/>
</radialGradient>
<radialGradient id="paint7_radial_529_4008" cx="0" cy="0" r="1" gradientUnits="userSpaceOnUse" gradientTransform="translate(817.696 514.957) rotate(15.4308) scale(115.533 116.038)">
<stop stop-color="#66C7C9"/>
<stop offset="1" stop-color="#66C7C9"/>
</radialGradient>
<radialGradient id="paint8_radial_529_4008" cx="0" cy="0" r="1" gradientUnits="userSpaceOnUse" gradientTransform="translate(830.329 428.917) rotate(49.3015) scale(180.476 180.341)">
<stop stop-color="white"/>
<stop offset="0.97449" stop-color="white" stop-opacity="0"/>
</radialGradient>
<radialGradient id="paint9_radial_529_4008" cx="0" cy="0" r="1" gradientUnits="userSpaceOnUse" gradientTransform="translate(1471.57 95.8968) rotate(125.038) scale(107.124 106.94)">
<stop stop-color="#83D5D6"/>
<stop offset="1" stop-color="#C2EFF0"/>
</radialGradient>
<radialGradient id="paint10_radial_529_4008" cx="0" cy="0" r="1" gradientUnits="userSpaceOnUse" gradientTransform="translate(1362.7 120.957) rotate(15.4308) scale(115.533 116.038)">
<stop stop-color="#66C7C9"/>
<stop offset="1" stop-color="#66C7C9"/>
</radialGradient>
<radialGradient id="paint11_radial_529_4008" cx="0" cy="0" r="1" gradientUnits="userSpaceOnUse" gradientTransform="translate(1375.33 34.9171) rotate(49.3015) scale(180.476 180.341)">
<stop stop-color="white"/>
<stop offset="0.97449" stop-color="white" stop-opacity="0"/>
</radialGradient>
<radialGradient id="paint12_radial_529_4008" cx="0" cy="0" r="1" gradientUnits="userSpaceOnUse" gradientTransform="translate(196.939 772.279) rotate(122.893) scale(115.765 112.11)">
<stop stop-color="#83D5D6"/>
<stop offset="1" stop-color="#C2EFF0"/>
</radialGradient>
<radialGradient id="paint13_radial_529_4008" cx="0" cy="0" r="1" gradientUnits="userSpaceOnUse" gradientTransform="translate(85.6437 800.052) rotate(16.6601) scale(118.833 127.81)">
<stop stop-color="#66C7C9"/>
<stop offset="1" stop-color="#66C7C9"/>
</radialGradient>
<radialGradient id="paint14_radial_529_4008" cx="0" cy="0" r="1" gradientUnits="userSpaceOnUse" gradientTransform="translate(98.5574 704.697) rotate(51.5742) scale(193.566 190.494)">
<stop stop-color="white"/>
<stop offset="0.97449" stop-color="white" stop-opacity="0"/>
</radialGradient>
<radialGradient id="paint15_radial_529_4008" cx="0" cy="0" r="1" gradientUnits="userSpaceOnUse" gradientTransform="translate(1459.94 799.279) rotate(122.893) scale(115.765 112.11)">
<stop stop-color="#83D5D6"/>
<stop offset="1" stop-color="#C2EFF0"/>
</radialGradient>
<radialGradient id="paint16_radial_529_4008" cx="0" cy="0" r="1" gradientUnits="userSpaceOnUse" gradientTransform="translate(1348.64 827.052) rotate(16.6601) scale(118.833 127.81)">
<stop stop-color="#66C7C9"/>
<stop offset="1" stop-color="#66C7C9"/>
</radialGradient>
<radialGradient id="paint17_radial_529_4008" cx="0" cy="0" r="1" gradientUnits="userSpaceOnUse" gradientTransform="translate(1361.56 731.697) rotate(51.5742) scale(193.566 190.494)">
<stop stop-color="white"/>
<stop offset="0.97449" stop-color="white" stop-opacity="0"/>
</radialGradient>
<clipPath id="clip0_529_4008">
<rect x="164.63" y="129" width="178.164" height="178.164" rx="89.0822" transform="rotate(33.2282 164.63 129)" fill="white"/>
</clipPath>
<clipPath id="clip1_529_4008">
<rect x="536.477" y="115" width="195.064" height="212.558" rx="97.5322" transform="rotate(33.2282 536.477 115)" fill="white"/>
</clipPath>
<clipPath id="clip2_529_4008">
<rect x="792.098" y="394" width="190.822" height="191.794" rx="95.411" transform="rotate(33.2282 792.098 394)" fill="white"/>
</clipPath>
<clipPath id="clip3_529_4008">
<rect x="1337.1" width="190.822" height="191.794" rx="95.411" transform="rotate(33.2282 1337.1 0)" fill="white"/>
</clipPath>
<clipPath id="clip4_529_4008">
<rect x="59.4766" y="666" width="195.064" height="212.558" rx="97.5322" transform="rotate(33.2282 59.4766 666)" fill="white"/>
</clipPath>
<clipPath id="clip5_529_4008">
<rect x="1322.48" y="693" width="195.064" height="212.558" rx="97.5322" transform="rotate(33.2282 1322.48 693)" fill="white"/>
</clipPath>
</defs>
</svg>
