<svg width="1813" height="985" viewBox="0 0 1813 985" fill="none" xmlns="http://www.w3.org/2000/svg">
<path fill-rule="evenodd" clip-rule="evenodd" d="M1813 365.999H1812V0.000158966C1812 0.000158966 1649.61 234.556 1340.17 207.723C1284.66 174.292 1220.3 134.205 1144.5 84.5519C937.842 -50.8201 776.44 7.03788 611.381 66.2069C432.598 130.296 249.524 195.923 0 19.2045V537.997H0.648607L1.0039 880.5C277.374 1048.61 388.442 963.982 493.368 884.039C589.724 810.625 680.9 741.159 890.156 874.988C901.166 882.711 911.949 889.927 922.514 896.66C924.36 897.95 926.215 899.255 928.078 900.575V900.174C1140.84 1033.33 1264.61 969.596 1379.13 910.624C1501.73 847.491 1613.74 789.814 1813 984.999V365.999Z" fill="#E6FFFF"/>
</svg>
