<svg width="1813" height="1010" viewBox="0 0 1813 1010" fill="none" xmlns="http://www.w3.org/2000/svg">
<path fill-rule="evenodd" clip-rule="evenodd" d="M1813 618.999H1812V984.998C1812 984.998 1576.33 644.619 1131.86 830.838C1081 859.671 1026.98 892.348 969.5 930C762.437 1065.64 641.293 1000.45 517.92 934.063C384.792 862.427 249.069 789.395 -0.00390625 965.794V447.001H0.644701L0.999994 104.498C277.37 -63.6072 388.438 21.0158 493.364 100.959C589.72 174.373 680.896 243.839 890.152 110.01C901.162 102.287 911.945 95.0711 922.51 88.3379C924.356 87.0479 926.211 85.7432 928.074 84.4235V84.8236C1140.84 -48.3299 1264.6 15.4024 1379.13 74.3745C1501.73 137.507 1613.74 195.184 1813 -0.000976562V618.999Z" fill="#E6FFFF"/>
</svg>
